%TF.GenerationSoftware,KiCad,Pcbnew,8.0.3*%
%TF.CreationDate,2024-07-10T12:56:16+05:30*%
%TF.ProjectId,Project_Rfid,50726f6a-6563-4745-9f52-6669642e6b69,rev?*%
%TF.SameCoordinates,Original*%
%TF.FileFunction,Legend,Top*%
%TF.FilePolarity,Positive*%
%FSLAX46Y46*%
G04 Gerber Fmt 4.6, Leading zero omitted, Abs format (unit mm)*
G04 Created by KiCad (PCBNEW 8.0.3) date 2024-07-10 12:56:16*
%MOMM*%
%LPD*%
G01*
G04 APERTURE LIST*
%ADD10C,0.150000*%
%ADD11C,0.120000*%
%ADD12C,0.200000*%
G04 APERTURE END LIST*
D10*
X133297333Y-101865580D02*
X133249714Y-101913200D01*
X133249714Y-101913200D02*
X133106857Y-101960819D01*
X133106857Y-101960819D02*
X133011619Y-101960819D01*
X133011619Y-101960819D02*
X132868762Y-101913200D01*
X132868762Y-101913200D02*
X132773524Y-101817961D01*
X132773524Y-101817961D02*
X132725905Y-101722723D01*
X132725905Y-101722723D02*
X132678286Y-101532247D01*
X132678286Y-101532247D02*
X132678286Y-101389390D01*
X132678286Y-101389390D02*
X132725905Y-101198914D01*
X132725905Y-101198914D02*
X132773524Y-101103676D01*
X132773524Y-101103676D02*
X132868762Y-101008438D01*
X132868762Y-101008438D02*
X133011619Y-100960819D01*
X133011619Y-100960819D02*
X133106857Y-100960819D01*
X133106857Y-100960819D02*
X133249714Y-101008438D01*
X133249714Y-101008438D02*
X133297333Y-101056057D01*
X133630667Y-100960819D02*
X134249714Y-100960819D01*
X134249714Y-100960819D02*
X133916381Y-101341771D01*
X133916381Y-101341771D02*
X134059238Y-101341771D01*
X134059238Y-101341771D02*
X134154476Y-101389390D01*
X134154476Y-101389390D02*
X134202095Y-101437009D01*
X134202095Y-101437009D02*
X134249714Y-101532247D01*
X134249714Y-101532247D02*
X134249714Y-101770342D01*
X134249714Y-101770342D02*
X134202095Y-101865580D01*
X134202095Y-101865580D02*
X134154476Y-101913200D01*
X134154476Y-101913200D02*
X134059238Y-101960819D01*
X134059238Y-101960819D02*
X133773524Y-101960819D01*
X133773524Y-101960819D02*
X133678286Y-101913200D01*
X133678286Y-101913200D02*
X133630667Y-101865580D01*
X140614095Y-92818319D02*
X140614095Y-93627842D01*
X140614095Y-93627842D02*
X140661714Y-93723080D01*
X140661714Y-93723080D02*
X140709333Y-93770700D01*
X140709333Y-93770700D02*
X140804571Y-93818319D01*
X140804571Y-93818319D02*
X140995047Y-93818319D01*
X140995047Y-93818319D02*
X141090285Y-93770700D01*
X141090285Y-93770700D02*
X141137904Y-93723080D01*
X141137904Y-93723080D02*
X141185523Y-93627842D01*
X141185523Y-93627842D02*
X141185523Y-92818319D01*
X141566476Y-92818319D02*
X142185523Y-92818319D01*
X142185523Y-92818319D02*
X141852190Y-93199271D01*
X141852190Y-93199271D02*
X141995047Y-93199271D01*
X141995047Y-93199271D02*
X142090285Y-93246890D01*
X142090285Y-93246890D02*
X142137904Y-93294509D01*
X142137904Y-93294509D02*
X142185523Y-93389747D01*
X142185523Y-93389747D02*
X142185523Y-93627842D01*
X142185523Y-93627842D02*
X142137904Y-93723080D01*
X142137904Y-93723080D02*
X142090285Y-93770700D01*
X142090285Y-93770700D02*
X141995047Y-93818319D01*
X141995047Y-93818319D02*
X141709333Y-93818319D01*
X141709333Y-93818319D02*
X141614095Y-93770700D01*
X141614095Y-93770700D02*
X141566476Y-93723080D01*
X153971666Y-98851819D02*
X153971666Y-99566104D01*
X153971666Y-99566104D02*
X153924047Y-99708961D01*
X153924047Y-99708961D02*
X153828809Y-99804200D01*
X153828809Y-99804200D02*
X153685952Y-99851819D01*
X153685952Y-99851819D02*
X153590714Y-99851819D01*
X154971666Y-99851819D02*
X154400238Y-99851819D01*
X154685952Y-99851819D02*
X154685952Y-98851819D01*
X154685952Y-98851819D02*
X154590714Y-98994676D01*
X154590714Y-98994676D02*
X154495476Y-99089914D01*
X154495476Y-99089914D02*
X154400238Y-99137533D01*
X133469095Y-103774819D02*
X133469095Y-104584342D01*
X133469095Y-104584342D02*
X133516714Y-104679580D01*
X133516714Y-104679580D02*
X133564333Y-104727200D01*
X133564333Y-104727200D02*
X133659571Y-104774819D01*
X133659571Y-104774819D02*
X133850047Y-104774819D01*
X133850047Y-104774819D02*
X133945285Y-104727200D01*
X133945285Y-104727200D02*
X133992904Y-104679580D01*
X133992904Y-104679580D02*
X134040523Y-104584342D01*
X134040523Y-104584342D02*
X134040523Y-103774819D01*
X134469095Y-103870057D02*
X134516714Y-103822438D01*
X134516714Y-103822438D02*
X134611952Y-103774819D01*
X134611952Y-103774819D02*
X134850047Y-103774819D01*
X134850047Y-103774819D02*
X134945285Y-103822438D01*
X134945285Y-103822438D02*
X134992904Y-103870057D01*
X134992904Y-103870057D02*
X135040523Y-103965295D01*
X135040523Y-103965295D02*
X135040523Y-104060533D01*
X135040523Y-104060533D02*
X134992904Y-104203390D01*
X134992904Y-104203390D02*
X134421476Y-104774819D01*
X134421476Y-104774819D02*
X135040523Y-104774819D01*
X137922009Y-122036737D02*
X137969628Y-121893880D01*
X137969628Y-121893880D02*
X138017247Y-121846261D01*
X138017247Y-121846261D02*
X138112485Y-121798642D01*
X138112485Y-121798642D02*
X138255342Y-121798642D01*
X138255342Y-121798642D02*
X138350580Y-121846261D01*
X138350580Y-121846261D02*
X138398200Y-121893880D01*
X138398200Y-121893880D02*
X138445819Y-121989118D01*
X138445819Y-121989118D02*
X138445819Y-122370070D01*
X138445819Y-122370070D02*
X137445819Y-122370070D01*
X137445819Y-122370070D02*
X137445819Y-122036737D01*
X137445819Y-122036737D02*
X137493438Y-121941499D01*
X137493438Y-121941499D02*
X137541057Y-121893880D01*
X137541057Y-121893880D02*
X137636295Y-121846261D01*
X137636295Y-121846261D02*
X137731533Y-121846261D01*
X137731533Y-121846261D02*
X137826771Y-121893880D01*
X137826771Y-121893880D02*
X137874390Y-121941499D01*
X137874390Y-121941499D02*
X137922009Y-122036737D01*
X137922009Y-122036737D02*
X137922009Y-122370070D01*
X137445819Y-121465308D02*
X137445819Y-120798642D01*
X137445819Y-120798642D02*
X138445819Y-121465308D01*
X138445819Y-121465308D02*
X138445819Y-120798642D01*
X138445819Y-119893880D02*
X138445819Y-120465308D01*
X138445819Y-120179594D02*
X137445819Y-120179594D01*
X137445819Y-120179594D02*
X137588676Y-120274832D01*
X137588676Y-120274832D02*
X137683914Y-120370070D01*
X137683914Y-120370070D02*
X137731533Y-120465308D01*
X148621809Y-104953628D02*
X148621809Y-105429819D01*
X148288476Y-104429819D02*
X148621809Y-104953628D01*
X148621809Y-104953628D02*
X148955142Y-104429819D01*
X149812285Y-105429819D02*
X149240857Y-105429819D01*
X149526571Y-105429819D02*
X149526571Y-104429819D01*
X149526571Y-104429819D02*
X149431333Y-104572676D01*
X149431333Y-104572676D02*
X149336095Y-104667914D01*
X149336095Y-104667914D02*
X149240857Y-104715533D01*
X135168819Y-123064594D02*
X134168819Y-123064594D01*
X134168819Y-123064594D02*
X134168819Y-122826499D01*
X134168819Y-122826499D02*
X134216438Y-122683642D01*
X134216438Y-122683642D02*
X134311676Y-122588404D01*
X134311676Y-122588404D02*
X134406914Y-122540785D01*
X134406914Y-122540785D02*
X134597390Y-122493166D01*
X134597390Y-122493166D02*
X134740247Y-122493166D01*
X134740247Y-122493166D02*
X134930723Y-122540785D01*
X134930723Y-122540785D02*
X135025961Y-122588404D01*
X135025961Y-122588404D02*
X135121200Y-122683642D01*
X135121200Y-122683642D02*
X135168819Y-122826499D01*
X135168819Y-122826499D02*
X135168819Y-123064594D01*
X134264057Y-122112213D02*
X134216438Y-122064594D01*
X134216438Y-122064594D02*
X134168819Y-121969356D01*
X134168819Y-121969356D02*
X134168819Y-121731261D01*
X134168819Y-121731261D02*
X134216438Y-121636023D01*
X134216438Y-121636023D02*
X134264057Y-121588404D01*
X134264057Y-121588404D02*
X134359295Y-121540785D01*
X134359295Y-121540785D02*
X134454533Y-121540785D01*
X134454533Y-121540785D02*
X134597390Y-121588404D01*
X134597390Y-121588404D02*
X135168819Y-122159832D01*
X135168819Y-122159832D02*
X135168819Y-121540785D01*
X133596095Y-118506819D02*
X133596095Y-119316342D01*
X133596095Y-119316342D02*
X133643714Y-119411580D01*
X133643714Y-119411580D02*
X133691333Y-119459200D01*
X133691333Y-119459200D02*
X133786571Y-119506819D01*
X133786571Y-119506819D02*
X133977047Y-119506819D01*
X133977047Y-119506819D02*
X134072285Y-119459200D01*
X134072285Y-119459200D02*
X134119904Y-119411580D01*
X134119904Y-119411580D02*
X134167523Y-119316342D01*
X134167523Y-119316342D02*
X134167523Y-118506819D01*
X135167523Y-119506819D02*
X134596095Y-119506819D01*
X134881809Y-119506819D02*
X134881809Y-118506819D01*
X134881809Y-118506819D02*
X134786571Y-118649676D01*
X134786571Y-118649676D02*
X134691333Y-118744914D01*
X134691333Y-118744914D02*
X134596095Y-118792533D01*
X132501819Y-122513166D02*
X132025628Y-122846499D01*
X132501819Y-123084594D02*
X131501819Y-123084594D01*
X131501819Y-123084594D02*
X131501819Y-122703642D01*
X131501819Y-122703642D02*
X131549438Y-122608404D01*
X131549438Y-122608404D02*
X131597057Y-122560785D01*
X131597057Y-122560785D02*
X131692295Y-122513166D01*
X131692295Y-122513166D02*
X131835152Y-122513166D01*
X131835152Y-122513166D02*
X131930390Y-122560785D01*
X131930390Y-122560785D02*
X131978009Y-122608404D01*
X131978009Y-122608404D02*
X132025628Y-122703642D01*
X132025628Y-122703642D02*
X132025628Y-123084594D01*
X132501819Y-121560785D02*
X132501819Y-122132213D01*
X132501819Y-121846499D02*
X131501819Y-121846499D01*
X131501819Y-121846499D02*
X131644676Y-121941737D01*
X131644676Y-121941737D02*
X131739914Y-122036975D01*
X131739914Y-122036975D02*
X131787533Y-122132213D01*
X133297333Y-98182580D02*
X133249714Y-98230200D01*
X133249714Y-98230200D02*
X133106857Y-98277819D01*
X133106857Y-98277819D02*
X133011619Y-98277819D01*
X133011619Y-98277819D02*
X132868762Y-98230200D01*
X132868762Y-98230200D02*
X132773524Y-98134961D01*
X132773524Y-98134961D02*
X132725905Y-98039723D01*
X132725905Y-98039723D02*
X132678286Y-97849247D01*
X132678286Y-97849247D02*
X132678286Y-97706390D01*
X132678286Y-97706390D02*
X132725905Y-97515914D01*
X132725905Y-97515914D02*
X132773524Y-97420676D01*
X132773524Y-97420676D02*
X132868762Y-97325438D01*
X132868762Y-97325438D02*
X133011619Y-97277819D01*
X133011619Y-97277819D02*
X133106857Y-97277819D01*
X133106857Y-97277819D02*
X133249714Y-97325438D01*
X133249714Y-97325438D02*
X133297333Y-97373057D01*
X134154476Y-97611152D02*
X134154476Y-98277819D01*
X133916381Y-97230200D02*
X133678286Y-97944485D01*
X133678286Y-97944485D02*
X134297333Y-97944485D01*
X127626874Y-120105819D02*
X127626874Y-119105819D01*
X127626874Y-119105819D02*
X127864969Y-119105819D01*
X127864969Y-119105819D02*
X128007826Y-119153438D01*
X128007826Y-119153438D02*
X128103064Y-119248676D01*
X128103064Y-119248676D02*
X128150683Y-119343914D01*
X128150683Y-119343914D02*
X128198302Y-119534390D01*
X128198302Y-119534390D02*
X128198302Y-119677247D01*
X128198302Y-119677247D02*
X128150683Y-119867723D01*
X128150683Y-119867723D02*
X128103064Y-119962961D01*
X128103064Y-119962961D02*
X128007826Y-120058200D01*
X128007826Y-120058200D02*
X127864969Y-120105819D01*
X127864969Y-120105819D02*
X127626874Y-120105819D01*
X129150683Y-120105819D02*
X128579255Y-120105819D01*
X128864969Y-120105819D02*
X128864969Y-119105819D01*
X128864969Y-119105819D02*
X128769731Y-119248676D01*
X128769731Y-119248676D02*
X128674493Y-119343914D01*
X128674493Y-119343914D02*
X128579255Y-119391533D01*
X124321667Y-93983200D02*
X124464524Y-94030819D01*
X124464524Y-94030819D02*
X124702619Y-94030819D01*
X124702619Y-94030819D02*
X124797857Y-93983200D01*
X124797857Y-93983200D02*
X124845476Y-93935580D01*
X124845476Y-93935580D02*
X124893095Y-93840342D01*
X124893095Y-93840342D02*
X124893095Y-93745104D01*
X124893095Y-93745104D02*
X124845476Y-93649866D01*
X124845476Y-93649866D02*
X124797857Y-93602247D01*
X124797857Y-93602247D02*
X124702619Y-93554628D01*
X124702619Y-93554628D02*
X124512143Y-93507009D01*
X124512143Y-93507009D02*
X124416905Y-93459390D01*
X124416905Y-93459390D02*
X124369286Y-93411771D01*
X124369286Y-93411771D02*
X124321667Y-93316533D01*
X124321667Y-93316533D02*
X124321667Y-93221295D01*
X124321667Y-93221295D02*
X124369286Y-93126057D01*
X124369286Y-93126057D02*
X124416905Y-93078438D01*
X124416905Y-93078438D02*
X124512143Y-93030819D01*
X124512143Y-93030819D02*
X124750238Y-93030819D01*
X124750238Y-93030819D02*
X124893095Y-93078438D01*
X125226429Y-93030819D02*
X125464524Y-94030819D01*
X125464524Y-94030819D02*
X125655000Y-93316533D01*
X125655000Y-93316533D02*
X125845476Y-94030819D01*
X125845476Y-94030819D02*
X126083572Y-93030819D01*
X126988333Y-94030819D02*
X126416905Y-94030819D01*
X126702619Y-94030819D02*
X126702619Y-93030819D01*
X126702619Y-93030819D02*
X126607381Y-93173676D01*
X126607381Y-93173676D02*
X126512143Y-93268914D01*
X126512143Y-93268914D02*
X126416905Y-93316533D01*
D11*
%TO.C,C3*%
X133604580Y-99566000D02*
X133323420Y-99566000D01*
X133604580Y-100586000D02*
X133323420Y-100586000D01*
%TO.C,U3*%
X139526000Y-94453500D02*
X143286000Y-94453500D01*
X139526000Y-101273500D02*
X143286000Y-101273500D01*
X143286000Y-94453500D02*
X143286000Y-95713500D01*
X143286000Y-101273500D02*
X143286000Y-100013500D01*
X138246000Y-94553500D02*
X138006000Y-94223500D01*
X138486000Y-94223500D01*
X138246000Y-94553500D01*
G36*
X138246000Y-94553500D02*
G01*
X138006000Y-94223500D01*
X138486000Y-94223500D01*
X138246000Y-94553500D01*
G37*
%TO.C,J1*%
X152975000Y-100397000D02*
X154305000Y-100397000D01*
X152975000Y-101727000D02*
X152975000Y-100397000D01*
X152975000Y-102997000D02*
X152975000Y-120837000D01*
X152975000Y-102997000D02*
X155635000Y-102997000D01*
X152975000Y-120837000D02*
X155635000Y-120837000D01*
X155635000Y-102997000D02*
X155635000Y-120837000D01*
%TO.C,U2*%
X131526000Y-112505000D02*
X131526000Y-112020000D01*
X131526000Y-117000000D02*
X131526000Y-116275000D01*
X132251000Y-111780000D02*
X131826000Y-111780000D01*
X132251000Y-117000000D02*
X131526000Y-117000000D01*
X136021000Y-111780000D02*
X136746000Y-111780000D01*
X136021000Y-117000000D02*
X136746000Y-117000000D01*
X136746000Y-111780000D02*
X136746000Y-112505000D01*
X136746000Y-117000000D02*
X136746000Y-116275000D01*
X131526000Y-111780000D02*
X131286000Y-111450000D01*
X131766000Y-111450000D01*
X131526000Y-111780000D01*
G36*
X131526000Y-111780000D02*
G01*
X131286000Y-111450000D01*
X131766000Y-111450000D01*
X131526000Y-111780000D01*
G37*
D12*
%TO.C,J2*%
X110772000Y-104891000D02*
X119162000Y-104891000D01*
X110772000Y-116991000D02*
X110772000Y-104891000D01*
X119162000Y-116991000D02*
X110772000Y-116991000D01*
X123182000Y-104891000D02*
X126972000Y-104891000D01*
X126972000Y-104891000D02*
X126972000Y-116991000D01*
X126972000Y-116991000D02*
X123182000Y-116991000D01*
X125972000Y-117691000D02*
G75*
G02*
X125772000Y-117691000I-100000J0D01*
G01*
X125772000Y-117691000D02*
G75*
G02*
X125972000Y-117691000I100000J0D01*
G01*
D11*
%TO.C,BZ1*%
X146660999Y-127555785D02*
G75*
G02*
X143661000Y-127555785I-1499999J6400000D01*
G01*
X151391000Y-121155785D02*
G75*
G02*
X138931000Y-121155785I-6230000J0D01*
G01*
X138931000Y-121155785D02*
G75*
G02*
X151391000Y-121155785I6230000J0D01*
G01*
%TO.C,Y1*%
X142636000Y-111504000D02*
X142636000Y-105104000D01*
X147686000Y-111504000D02*
X147686000Y-105104000D01*
X142636000Y-105104000D02*
G75*
G02*
X147686000Y-105104000I2525000J0D01*
G01*
X147686000Y-111504000D02*
G75*
G02*
X142636000Y-111504000I-2525000J0D01*
G01*
%TO.C,D2*%
X135409000Y-121526500D02*
X135409000Y-123811500D01*
X135409000Y-123811500D02*
X136879000Y-123811500D01*
X136879000Y-123811500D02*
X136879000Y-121526500D01*
%TO.C,U1*%
X132026000Y-105530000D02*
X132026000Y-105905000D01*
X132026000Y-109750000D02*
X132026000Y-109375000D01*
X132401000Y-105530000D02*
X132026000Y-105530000D01*
X132401000Y-109750000D02*
X132026000Y-109750000D01*
X135871000Y-105530000D02*
X136246000Y-105530000D01*
X136246000Y-105530000D02*
X136246000Y-105905000D01*
X136246000Y-109375000D02*
X136246000Y-109510000D01*
X136486000Y-110080000D02*
X136006000Y-110080000D01*
X136246000Y-109750000D01*
X136486000Y-110080000D01*
G36*
X136486000Y-110080000D02*
G01*
X136006000Y-110080000D01*
X136246000Y-109750000D01*
X136486000Y-110080000D01*
G37*
%TO.C,R1*%
X132954500Y-122583758D02*
X132954500Y-122109242D01*
X133999500Y-122583758D02*
X133999500Y-122109242D01*
%TO.C,C4*%
X133604580Y-95883000D02*
X133323420Y-95883000D01*
X133604580Y-96903000D02*
X133323420Y-96903000D01*
%TO.C,D1*%
X123129500Y-120341000D02*
X123129500Y-124261000D01*
X123129500Y-124261000D02*
X128339500Y-124261000D01*
X128339500Y-120341000D02*
X123129500Y-120341000D01*
%TO.C,SW1*%
X122155000Y-97076000D02*
X122155000Y-98576000D01*
X123405000Y-101076000D02*
X127905000Y-101076000D01*
X127905000Y-94576000D02*
X123405000Y-94576000D01*
X129155000Y-98576000D02*
X129155000Y-97076000D01*
%TD*%
M02*
