%TF.GenerationSoftware,KiCad,Pcbnew,8.0.3*%
%TF.CreationDate,2024-07-10T12:56:16+05:30*%
%TF.ProjectId,Project_Rfid,50726f6a-6563-4745-9f52-6669642e6b69,rev?*%
%TF.SameCoordinates,Original*%
%TF.FileFunction,Paste,Top*%
%TF.FilePolarity,Positive*%
%FSLAX46Y46*%
G04 Gerber Fmt 4.6, Leading zero omitted, Abs format (unit mm)*
G04 Created by KiCad (PCBNEW 8.0.3) date 2024-07-10 12:56:16*
%MOMM*%
%LPD*%
G01*
G04 APERTURE LIST*
G04 Aperture macros list*
%AMRoundRect*
0 Rectangle with rounded corners*
0 $1 Rounding radius*
0 $2 $3 $4 $5 $6 $7 $8 $9 X,Y pos of 4 corners*
0 Add a 4 corners polygon primitive as box body*
4,1,4,$2,$3,$4,$5,$6,$7,$8,$9,$2,$3,0*
0 Add four circle primitives for the rounded corners*
1,1,$1+$1,$2,$3*
1,1,$1+$1,$4,$5*
1,1,$1+$1,$6,$7*
1,1,$1+$1,$8,$9*
0 Add four rect primitives between the rounded corners*
20,1,$1+$1,$2,$3,$4,$5,0*
20,1,$1+$1,$4,$5,$6,$7,0*
20,1,$1+$1,$6,$7,$8,$9,0*
20,1,$1+$1,$8,$9,$2,$3,0*%
%AMFreePoly0*
4,1,14,0.318306,0.106694,0.381694,0.043306,0.400000,-0.000888,0.400000,-0.062500,0.381694,-0.106694,0.337500,-0.125000,-0.337500,-0.125000,-0.381694,-0.106694,-0.400000,-0.062500,-0.400000,0.062500,-0.381694,0.106694,-0.337500,0.125000,0.274112,0.125000,0.318306,0.106694,0.318306,0.106694,$1*%
%AMFreePoly1*
4,1,14,0.381694,0.106694,0.400000,0.062500,0.400000,0.000888,0.381694,-0.043306,0.318306,-0.106694,0.274112,-0.125000,-0.337500,-0.125000,-0.381694,-0.106694,-0.400000,-0.062500,-0.400000,0.062500,-0.381694,0.106694,-0.337500,0.125000,0.337500,0.125000,0.381694,0.106694,0.381694,0.106694,$1*%
%AMFreePoly2*
4,1,14,0.106694,0.381694,0.125000,0.337500,0.125000,-0.337500,0.106694,-0.381694,0.062500,-0.400000,-0.062500,-0.400000,-0.106694,-0.381694,-0.125000,-0.337500,-0.125000,0.274112,-0.106694,0.318306,-0.043306,0.381694,0.000888,0.400000,0.062500,0.400000,0.106694,0.381694,0.106694,0.381694,$1*%
%AMFreePoly3*
4,1,14,0.043306,0.381694,0.106694,0.318306,0.125000,0.274112,0.125000,-0.337500,0.106694,-0.381694,0.062500,-0.400000,-0.062500,-0.400000,-0.106694,-0.381694,-0.125000,-0.337500,-0.125000,0.337500,-0.106694,0.381694,-0.062500,0.400000,-0.000888,0.400000,0.043306,0.381694,0.043306,0.381694,$1*%
%AMFreePoly4*
4,1,14,0.381694,0.106694,0.400000,0.062500,0.400000,-0.062500,0.381694,-0.106694,0.337500,-0.125000,-0.274112,-0.125000,-0.318306,-0.106694,-0.381694,-0.043306,-0.400000,0.000888,-0.400000,0.062500,-0.381694,0.106694,-0.337500,0.125000,0.337500,0.125000,0.381694,0.106694,0.381694,0.106694,$1*%
%AMFreePoly5*
4,1,14,0.381694,0.106694,0.400000,0.062500,0.400000,-0.062500,0.381694,-0.106694,0.337500,-0.125000,-0.337500,-0.125000,-0.381694,-0.106694,-0.400000,-0.062500,-0.400000,-0.000888,-0.381694,0.043306,-0.318306,0.106694,-0.274112,0.125000,0.337500,0.125000,0.381694,0.106694,0.381694,0.106694,$1*%
%AMFreePoly6*
4,1,14,0.106694,0.381694,0.125000,0.337500,0.125000,-0.274112,0.106694,-0.318306,0.043306,-0.381694,-0.000888,-0.400000,-0.062500,-0.400000,-0.106694,-0.381694,-0.125000,-0.337500,-0.125000,0.337500,-0.106694,0.381694,-0.062500,0.400000,0.062500,0.400000,0.106694,0.381694,0.106694,0.381694,$1*%
%AMFreePoly7*
4,1,14,0.106694,0.381694,0.125000,0.337500,0.125000,-0.337500,0.106694,-0.381694,0.062500,-0.400000,0.000888,-0.400000,-0.043306,-0.381694,-0.106694,-0.318306,-0.125000,-0.274112,-0.125000,0.337500,-0.106694,0.381694,-0.062500,0.400000,0.062500,0.400000,0.106694,0.381694,0.106694,0.381694,$1*%
G04 Aperture macros list end*
%ADD10RoundRect,0.225000X0.225000X0.250000X-0.225000X0.250000X-0.225000X-0.250000X0.225000X-0.250000X0*%
%ADD11RoundRect,0.375000X-0.625000X-0.375000X0.625000X-0.375000X0.625000X0.375000X-0.625000X0.375000X0*%
%ADD12RoundRect,0.500000X-0.500000X-1.400000X0.500000X-1.400000X0.500000X1.400000X-0.500000X1.400000X0*%
%ADD13RoundRect,0.225000X-0.225000X-0.225000X0.225000X-0.225000X0.225000X0.225000X-0.225000X0.225000X0*%
%ADD14RoundRect,0.062500X-0.337500X-0.062500X0.337500X-0.062500X0.337500X0.062500X-0.337500X0.062500X0*%
%ADD15RoundRect,0.062500X-0.062500X-0.337500X0.062500X-0.337500X0.062500X0.337500X-0.062500X0.337500X0*%
%ADD16RoundRect,0.218750X0.256250X-0.218750X0.256250X0.218750X-0.256250X0.218750X-0.256250X-0.218750X0*%
%ADD17RoundRect,0.242500X0.242500X0.242500X-0.242500X0.242500X-0.242500X-0.242500X0.242500X-0.242500X0*%
%ADD18FreePoly0,180.000000*%
%ADD19RoundRect,0.062500X0.337500X0.062500X-0.337500X0.062500X-0.337500X-0.062500X0.337500X-0.062500X0*%
%ADD20FreePoly1,180.000000*%
%ADD21FreePoly2,180.000000*%
%ADD22RoundRect,0.062500X0.062500X0.337500X-0.062500X0.337500X-0.062500X-0.337500X0.062500X-0.337500X0*%
%ADD23FreePoly3,180.000000*%
%ADD24FreePoly4,180.000000*%
%ADD25FreePoly5,180.000000*%
%ADD26FreePoly6,180.000000*%
%ADD27FreePoly7,180.000000*%
%ADD28RoundRect,0.200000X0.275000X-0.200000X0.275000X0.200000X-0.275000X0.200000X-0.275000X-0.200000X0*%
%ADD29RoundRect,0.250000X-0.312500X-1.450000X0.312500X-1.450000X0.312500X1.450000X-0.312500X1.450000X0*%
G04 APERTURE END LIST*
D10*
%TO.C,C3*%
X134239000Y-100076000D03*
X132689000Y-100076000D03*
%TD*%
D11*
%TO.C,U3*%
X138226000Y-95563500D03*
X138226000Y-97863500D03*
D12*
X144526000Y-97863500D03*
D11*
X138226000Y-100163500D03*
%TD*%
D13*
%TO.C,U2*%
X133016000Y-113270000D03*
X133016000Y-114390000D03*
X133016000Y-115510000D03*
X134136000Y-113270000D03*
X134136000Y-114390000D03*
X134136000Y-115510000D03*
X135256000Y-113270000D03*
X135256000Y-114390000D03*
X135256000Y-115510000D03*
D14*
X131686000Y-112890000D03*
X131686000Y-113390000D03*
X131686000Y-113890000D03*
X131686000Y-114390000D03*
X131686000Y-114890000D03*
X131686000Y-115390000D03*
X131686000Y-115890000D03*
D15*
X132636000Y-116840000D03*
X133136000Y-116840000D03*
X133636000Y-116840000D03*
X134136000Y-116840000D03*
X134636000Y-116840000D03*
X135136000Y-116840000D03*
X135636000Y-116840000D03*
D14*
X136586000Y-115890000D03*
X136586000Y-115390000D03*
X136586000Y-114890000D03*
X136586000Y-114390000D03*
X136586000Y-113890000D03*
X136586000Y-113390000D03*
X136586000Y-112890000D03*
D15*
X135636000Y-111940000D03*
X135136000Y-111940000D03*
X134636000Y-111940000D03*
X134136000Y-111940000D03*
X133636000Y-111940000D03*
X133136000Y-111940000D03*
X132636000Y-111940000D03*
%TD*%
D16*
%TO.C,D2*%
X136144000Y-123114000D03*
X136144000Y-121539000D03*
%TD*%
D17*
%TO.C,U1*%
X134736000Y-108240000D03*
X134736000Y-107040000D03*
X133536000Y-108240000D03*
X133536000Y-107040000D03*
D18*
X136086000Y-108990000D03*
D19*
X136086000Y-108540000D03*
X136086000Y-108090000D03*
X136086000Y-107640000D03*
X136086000Y-107190000D03*
X136086000Y-106740000D03*
D20*
X136086000Y-106290000D03*
D21*
X135486000Y-105690000D03*
D22*
X135036000Y-105690000D03*
X134586000Y-105690000D03*
X134136000Y-105690000D03*
X133686000Y-105690000D03*
X133236000Y-105690000D03*
D23*
X132786000Y-105690000D03*
D24*
X132186000Y-106290000D03*
D19*
X132186000Y-106740000D03*
X132186000Y-107190000D03*
X132186000Y-107640000D03*
X132186000Y-108090000D03*
X132186000Y-108540000D03*
D25*
X132186000Y-108990000D03*
D26*
X132786000Y-109590000D03*
D22*
X133236000Y-109590000D03*
X133686000Y-109590000D03*
X134136000Y-109590000D03*
X134586000Y-109590000D03*
X135036000Y-109590000D03*
D27*
X135486000Y-109590000D03*
%TD*%
D28*
%TO.C,R1*%
X133477000Y-123171500D03*
X133477000Y-121521500D03*
%TD*%
D10*
%TO.C,C4*%
X134239000Y-96393000D03*
X132689000Y-96393000D03*
%TD*%
D29*
%TO.C,D1*%
X123952000Y-122301000D03*
X128227000Y-122301000D03*
%TD*%
M02*
