%TF.GenerationSoftware,KiCad,Pcbnew,8.0.3*%
%TF.CreationDate,2024-07-10T12:56:30+05:30*%
%TF.ProjectId,Project_Rfid,50726f6a-6563-4745-9f52-6669642e6b69,rev?*%
%TF.SameCoordinates,Original*%
%TF.FileFunction,Plated,1,2,PTH,Drill*%
%TF.FilePolarity,Positive*%
%FSLAX46Y46*%
G04 Gerber Fmt 4.6, Leading zero omitted, Abs format (unit mm)*
G04 Created by KiCad (PCBNEW 8.0.3) date 2024-07-10 12:56:30*
%MOMM*%
%LPD*%
G01*
G04 APERTURE LIST*
%TA.AperFunction,ViaDrill*%
%ADD10C,0.300000*%
%TD*%
%TA.AperFunction,ComponentDrill*%
%ADD11C,0.800000*%
%TD*%
%TA.AperFunction,ComponentDrill*%
%ADD12C,0.900000*%
%TD*%
%TA.AperFunction,ComponentDrill*%
%ADD13C,1.000000*%
%TD*%
%TA.AperFunction,ComponentDrill*%
%ADD14C,1.100000*%
%TD*%
%TA.AperFunction,ComponentDrill*%
%ADD15C,2.300000*%
%TD*%
G04 APERTURE END LIST*
D10*
X128270000Y-112191000D03*
X129108531Y-106802590D03*
X129159000Y-105156000D03*
X130810000Y-104775000D03*
X130937000Y-96647000D03*
X130937000Y-106934000D03*
X131953000Y-103378000D03*
X135001000Y-124968000D03*
X136144000Y-104013000D03*
X136906000Y-105791000D03*
X138176000Y-107915000D03*
X138938000Y-106680000D03*
X138938000Y-110617000D03*
X139179000Y-107857151D03*
X139192000Y-105283000D03*
X139870265Y-106596265D03*
X141478000Y-105156000D03*
X141478000Y-109601000D03*
X141478000Y-122047000D03*
X143764000Y-102362000D03*
X144653000Y-104521000D03*
X146316000Y-100711000D03*
X147066000Y-101092000D03*
X148590000Y-106553000D03*
X151257000Y-115824000D03*
D11*
%TO.C,Y1*%
X145161000Y-105864000D03*
X145161000Y-110744000D03*
D12*
%TO.C,J2*%
X123872000Y-109691000D03*
X123872000Y-112191000D03*
X125872000Y-109691000D03*
X125872000Y-112191000D03*
D13*
%TO.C,BZ1*%
X145161000Y-118655785D03*
X145161000Y-123655785D03*
%TO.C,J1*%
X154305000Y-101727000D03*
X154305000Y-104267000D03*
X154305000Y-106807000D03*
X154305000Y-109347000D03*
X154305000Y-111887000D03*
X154305000Y-114427000D03*
X154305000Y-116967000D03*
X154305000Y-119507000D03*
D14*
%TO.C,SW1*%
X122405000Y-95576000D03*
X122405000Y-100076000D03*
X128905000Y-95576000D03*
X128905000Y-100076000D03*
D15*
%TO.C,J2*%
X121172000Y-104921000D03*
X121172000Y-116961000D03*
M02*
