%TF.GenerationSoftware,KiCad,Pcbnew,8.0.3*%
%TF.CreationDate,2024-07-10T12:56:16+05:30*%
%TF.ProjectId,Project_Rfid,50726f6a-6563-4745-9f52-6669642e6b69,rev?*%
%TF.SameCoordinates,Original*%
%TF.FileFunction,Copper,L1,Top*%
%TF.FilePolarity,Positive*%
%FSLAX46Y46*%
G04 Gerber Fmt 4.6, Leading zero omitted, Abs format (unit mm)*
G04 Created by KiCad (PCBNEW 8.0.3) date 2024-07-10 12:56:16*
%MOMM*%
%LPD*%
G01*
G04 APERTURE LIST*
G04 Aperture macros list*
%AMRoundRect*
0 Rectangle with rounded corners*
0 $1 Rounding radius*
0 $2 $3 $4 $5 $6 $7 $8 $9 X,Y pos of 4 corners*
0 Add a 4 corners polygon primitive as box body*
4,1,4,$2,$3,$4,$5,$6,$7,$8,$9,$2,$3,0*
0 Add four circle primitives for the rounded corners*
1,1,$1+$1,$2,$3*
1,1,$1+$1,$4,$5*
1,1,$1+$1,$6,$7*
1,1,$1+$1,$8,$9*
0 Add four rect primitives between the rounded corners*
20,1,$1+$1,$2,$3,$4,$5,0*
20,1,$1+$1,$4,$5,$6,$7,0*
20,1,$1+$1,$6,$7,$8,$9,0*
20,1,$1+$1,$8,$9,$2,$3,0*%
%AMFreePoly0*
4,1,14,0.318306,0.106694,0.381694,0.043306,0.400000,-0.000888,0.400000,-0.062500,0.381694,-0.106694,0.337500,-0.125000,-0.337500,-0.125000,-0.381694,-0.106694,-0.400000,-0.062500,-0.400000,0.062500,-0.381694,0.106694,-0.337500,0.125000,0.274112,0.125000,0.318306,0.106694,0.318306,0.106694,$1*%
%AMFreePoly1*
4,1,14,0.381694,0.106694,0.400000,0.062500,0.400000,0.000888,0.381694,-0.043306,0.318306,-0.106694,0.274112,-0.125000,-0.337500,-0.125000,-0.381694,-0.106694,-0.400000,-0.062500,-0.400000,0.062500,-0.381694,0.106694,-0.337500,0.125000,0.337500,0.125000,0.381694,0.106694,0.381694,0.106694,$1*%
%AMFreePoly2*
4,1,14,0.106694,0.381694,0.125000,0.337500,0.125000,-0.337500,0.106694,-0.381694,0.062500,-0.400000,-0.062500,-0.400000,-0.106694,-0.381694,-0.125000,-0.337500,-0.125000,0.274112,-0.106694,0.318306,-0.043306,0.381694,0.000888,0.400000,0.062500,0.400000,0.106694,0.381694,0.106694,0.381694,$1*%
%AMFreePoly3*
4,1,14,0.043306,0.381694,0.106694,0.318306,0.125000,0.274112,0.125000,-0.337500,0.106694,-0.381694,0.062500,-0.400000,-0.062500,-0.400000,-0.106694,-0.381694,-0.125000,-0.337500,-0.125000,0.337500,-0.106694,0.381694,-0.062500,0.400000,-0.000888,0.400000,0.043306,0.381694,0.043306,0.381694,$1*%
%AMFreePoly4*
4,1,14,0.381694,0.106694,0.400000,0.062500,0.400000,-0.062500,0.381694,-0.106694,0.337500,-0.125000,-0.274112,-0.125000,-0.318306,-0.106694,-0.381694,-0.043306,-0.400000,0.000888,-0.400000,0.062500,-0.381694,0.106694,-0.337500,0.125000,0.337500,0.125000,0.381694,0.106694,0.381694,0.106694,$1*%
%AMFreePoly5*
4,1,14,0.381694,0.106694,0.400000,0.062500,0.400000,-0.062500,0.381694,-0.106694,0.337500,-0.125000,-0.337500,-0.125000,-0.381694,-0.106694,-0.400000,-0.062500,-0.400000,-0.000888,-0.381694,0.043306,-0.318306,0.106694,-0.274112,0.125000,0.337500,0.125000,0.381694,0.106694,0.381694,0.106694,$1*%
%AMFreePoly6*
4,1,14,0.106694,0.381694,0.125000,0.337500,0.125000,-0.274112,0.106694,-0.318306,0.043306,-0.381694,-0.000888,-0.400000,-0.062500,-0.400000,-0.106694,-0.381694,-0.125000,-0.337500,-0.125000,0.337500,-0.106694,0.381694,-0.062500,0.400000,0.062500,0.400000,0.106694,0.381694,0.106694,0.381694,$1*%
%AMFreePoly7*
4,1,14,0.106694,0.381694,0.125000,0.337500,0.125000,-0.337500,0.106694,-0.381694,0.062500,-0.400000,0.000888,-0.400000,-0.043306,-0.381694,-0.106694,-0.318306,-0.125000,-0.274112,-0.125000,0.337500,-0.106694,0.381694,-0.062500,0.400000,0.062500,0.400000,0.106694,0.381694,0.106694,0.381694,$1*%
G04 Aperture macros list end*
%TA.AperFunction,SMDPad,CuDef*%
%ADD10RoundRect,0.225000X0.225000X0.250000X-0.225000X0.250000X-0.225000X-0.250000X0.225000X-0.250000X0*%
%TD*%
%TA.AperFunction,SMDPad,CuDef*%
%ADD11RoundRect,0.375000X-0.625000X-0.375000X0.625000X-0.375000X0.625000X0.375000X-0.625000X0.375000X0*%
%TD*%
%TA.AperFunction,SMDPad,CuDef*%
%ADD12RoundRect,0.500000X-0.500000X-1.400000X0.500000X-1.400000X0.500000X1.400000X-0.500000X1.400000X0*%
%TD*%
%TA.AperFunction,ComponentPad*%
%ADD13R,1.700000X1.700000*%
%TD*%
%TA.AperFunction,ComponentPad*%
%ADD14O,1.700000X1.700000*%
%TD*%
%TA.AperFunction,SMDPad,CuDef*%
%ADD15RoundRect,0.062500X-0.337500X-0.062500X0.337500X-0.062500X0.337500X0.062500X-0.337500X0.062500X0*%
%TD*%
%TA.AperFunction,SMDPad,CuDef*%
%ADD16RoundRect,0.062500X-0.062500X-0.337500X0.062500X-0.337500X0.062500X0.337500X-0.062500X0.337500X0*%
%TD*%
%TA.AperFunction,HeatsinkPad*%
%ADD17R,3.350000X3.350000*%
%TD*%
%TA.AperFunction,ComponentPad*%
%ADD18R,1.408000X1.408000*%
%TD*%
%TA.AperFunction,ComponentPad*%
%ADD19C,1.408000*%
%TD*%
%TA.AperFunction,ComponentPad*%
%ADD20C,3.316000*%
%TD*%
%TA.AperFunction,ComponentPad*%
%ADD21R,2.000000X2.000000*%
%TD*%
%TA.AperFunction,ComponentPad*%
%ADD22C,2.000000*%
%TD*%
%TA.AperFunction,ComponentPad*%
%ADD23C,1.500000*%
%TD*%
%TA.AperFunction,SMDPad,CuDef*%
%ADD24RoundRect,0.218750X0.256250X-0.218750X0.256250X0.218750X-0.256250X0.218750X-0.256250X-0.218750X0*%
%TD*%
%TA.AperFunction,SMDPad,CuDef*%
%ADD25FreePoly0,180.000000*%
%TD*%
%TA.AperFunction,SMDPad,CuDef*%
%ADD26RoundRect,0.062500X0.337500X0.062500X-0.337500X0.062500X-0.337500X-0.062500X0.337500X-0.062500X0*%
%TD*%
%TA.AperFunction,SMDPad,CuDef*%
%ADD27FreePoly1,180.000000*%
%TD*%
%TA.AperFunction,SMDPad,CuDef*%
%ADD28FreePoly2,180.000000*%
%TD*%
%TA.AperFunction,SMDPad,CuDef*%
%ADD29RoundRect,0.062500X0.062500X0.337500X-0.062500X0.337500X-0.062500X-0.337500X0.062500X-0.337500X0*%
%TD*%
%TA.AperFunction,SMDPad,CuDef*%
%ADD30FreePoly3,180.000000*%
%TD*%
%TA.AperFunction,SMDPad,CuDef*%
%ADD31FreePoly4,180.000000*%
%TD*%
%TA.AperFunction,SMDPad,CuDef*%
%ADD32FreePoly5,180.000000*%
%TD*%
%TA.AperFunction,SMDPad,CuDef*%
%ADD33FreePoly6,180.000000*%
%TD*%
%TA.AperFunction,SMDPad,CuDef*%
%ADD34FreePoly7,180.000000*%
%TD*%
%TA.AperFunction,HeatsinkPad*%
%ADD35R,2.400000X2.400000*%
%TD*%
%TA.AperFunction,SMDPad,CuDef*%
%ADD36RoundRect,0.200000X0.275000X-0.200000X0.275000X0.200000X-0.275000X0.200000X-0.275000X-0.200000X0*%
%TD*%
%TA.AperFunction,SMDPad,CuDef*%
%ADD37RoundRect,0.250000X-0.312500X-1.450000X0.312500X-1.450000X0.312500X1.450000X-0.312500X1.450000X0*%
%TD*%
%TA.AperFunction,ViaPad*%
%ADD38C,0.600000*%
%TD*%
%TA.AperFunction,Conductor*%
%ADD39C,0.200000*%
%TD*%
%TA.AperFunction,Conductor*%
%ADD40C,0.500000*%
%TD*%
G04 APERTURE END LIST*
D10*
%TO.P,C3,1*%
%TO.N,VCC*%
X134239000Y-100076000D03*
%TO.P,C3,2*%
%TO.N,GND*%
X132689000Y-100076000D03*
%TD*%
D11*
%TO.P,U3,1,GND*%
%TO.N,GND*%
X138226000Y-95563500D03*
%TO.P,U3,2,VO*%
%TO.N,+3.3V*%
X138226000Y-97863500D03*
D12*
X144526000Y-97863500D03*
D11*
%TO.P,U3,3,VI*%
%TO.N,VCC*%
X138226000Y-100163500D03*
%TD*%
D13*
%TO.P,J1,1,Pin_1*%
%TO.N,/MF-SDA*%
X154305000Y-101727000D03*
D14*
%TO.P,J1,2,Pin_2*%
%TO.N,/MF-SCK*%
X154305000Y-104267000D03*
%TO.P,J1,3,Pin_3*%
%TO.N,/MF-MOSI*%
X154305000Y-106807000D03*
%TO.P,J1,4,Pin_4*%
%TO.N,/MF-MISO*%
X154305000Y-109347000D03*
%TO.P,J1,5,Pin_5*%
%TO.N,unconnected-(J1-Pin_5-Pad5)*%
X154305000Y-111887000D03*
%TO.P,J1,6,Pin_6*%
%TO.N,GND*%
X154305000Y-114427000D03*
%TO.P,J1,7,Pin_7*%
%TO.N,/MF-RST*%
X154305000Y-116967000D03*
%TO.P,J1,8,Pin_8*%
%TO.N,+3.3V*%
X154305000Y-119507000D03*
%TD*%
D15*
%TO.P,U2,1,~{DCD}*%
%TO.N,unconnected-(U2-~{DCD}-Pad1)*%
X131686000Y-112890000D03*
%TO.P,U2,2,~{RI}/CLK*%
%TO.N,unconnected-(U2-~{RI}{slash}CLK-Pad2)*%
X131686000Y-113390000D03*
%TO.P,U2,3,GND*%
%TO.N,GND*%
X131686000Y-113890000D03*
%TO.P,U2,4,D+*%
%TO.N,Net-(J2-D+)*%
X131686000Y-114390000D03*
%TO.P,U2,5,D-*%
%TO.N,Net-(J2-D-)*%
X131686000Y-114890000D03*
%TO.P,U2,6,VDD*%
%TO.N,VCC*%
X131686000Y-115390000D03*
%TO.P,U2,7,VREGIN*%
X131686000Y-115890000D03*
D16*
%TO.P,U2,8,VBUS*%
X132636000Y-116840000D03*
%TO.P,U2,9,~{RST}*%
%TO.N,unconnected-(U2-~{RST}-Pad9)*%
X133136000Y-116840000D03*
%TO.P,U2,10,NC*%
%TO.N,unconnected-(U2-NC-Pad10)*%
X133636000Y-116840000D03*
%TO.P,U2,11,~{SUSPEND}*%
%TO.N,unconnected-(U2-~{SUSPEND}-Pad11)*%
X134136000Y-116840000D03*
%TO.P,U2,12,SUSPEND*%
%TO.N,unconnected-(U2-SUSPEND-Pad12)*%
X134636000Y-116840000D03*
%TO.P,U2,13,CHREN*%
%TO.N,unconnected-(U2-CHREN-Pad13)*%
X135136000Y-116840000D03*
%TO.P,U2,14,CHR1*%
%TO.N,unconnected-(U2-CHR1-Pad14)*%
X135636000Y-116840000D03*
D15*
%TO.P,U2,15,CHR0*%
%TO.N,unconnected-(U2-CHR0-Pad15)*%
X136586000Y-115890000D03*
%TO.P,U2,16,~{WAKEUP}/GPIO.3*%
%TO.N,unconnected-(U2-~{WAKEUP}{slash}GPIO.3-Pad16)*%
X136586000Y-115390000D03*
%TO.P,U2,17,RS485/GPIO.2*%
%TO.N,unconnected-(U2-RS485{slash}GPIO.2-Pad17)*%
X136586000Y-114890000D03*
%TO.P,U2,18,~{RXT}/GPIO.1*%
%TO.N,unconnected-(U2-~{RXT}{slash}GPIO.1-Pad18)*%
X136586000Y-114390000D03*
%TO.P,U2,19,~{TXT}/GPIO.0*%
%TO.N,unconnected-(U2-~{TXT}{slash}GPIO.0-Pad19)*%
X136586000Y-113890000D03*
%TO.P,U2,20,GPIO.6*%
%TO.N,unconnected-(U2-GPIO.6-Pad20)*%
X136586000Y-113390000D03*
%TO.P,U2,21,GPIO.5*%
%TO.N,unconnected-(U2-GPIO.5-Pad21)*%
X136586000Y-112890000D03*
D16*
%TO.P,U2,22,GPIO.4*%
%TO.N,unconnected-(U2-GPIO.4-Pad22)*%
X135636000Y-111940000D03*
%TO.P,U2,23,~{CTS}*%
%TO.N,unconnected-(U2-~{CTS}-Pad23)*%
X135136000Y-111940000D03*
%TO.P,U2,24,~{RTS}*%
%TO.N,unconnected-(U2-~{RTS}-Pad24)*%
X134636000Y-111940000D03*
%TO.P,U2,25,RXD*%
%TO.N,/TxD*%
X134136000Y-111940000D03*
%TO.P,U2,26,TXD*%
%TO.N,/RxD*%
X133636000Y-111940000D03*
%TO.P,U2,27,~{DSR}*%
%TO.N,unconnected-(U2-~{DSR}-Pad27)*%
X133136000Y-111940000D03*
%TO.P,U2,28,~{DTR}*%
%TO.N,/RST*%
X132636000Y-111940000D03*
D17*
%TO.P,U2,29,GND*%
%TO.N,GND*%
X134136000Y-114390000D03*
%TD*%
D18*
%TO.P,J2,1,VCC*%
%TO.N,VCC*%
X125872000Y-112191000D03*
D19*
%TO.P,J2,2,D-*%
%TO.N,Net-(J2-D-)*%
X125872000Y-109691000D03*
%TO.P,J2,3,D+*%
%TO.N,Net-(J2-D+)*%
X123872000Y-109691000D03*
%TO.P,J2,4,GND*%
%TO.N,GND*%
X123872000Y-112191000D03*
D20*
%TO.P,J2,S1,SHIELD*%
X121172000Y-104921000D03*
%TO.P,J2,S2,SHIELD*%
X121172000Y-116961000D03*
%TD*%
D21*
%TO.P,BZ1,1,+*%
%TO.N,Net-(BZ1-+)*%
X145161000Y-123655785D03*
D22*
%TO.P,BZ1,2,-*%
%TO.N,GND*%
X145161000Y-118655785D03*
%TD*%
D23*
%TO.P,Y1,1,1*%
%TO.N,Net-(U1-XTAL2{slash}PB7)*%
X145161000Y-110744000D03*
%TO.P,Y1,2,2*%
%TO.N,Net-(U1-XTAL1{slash}PB6)*%
X145161000Y-105864000D03*
%TD*%
D24*
%TO.P,D2,1,K*%
%TO.N,VCC*%
X136144000Y-123114000D03*
%TO.P,D2,2,A*%
X136144000Y-121539000D03*
%TD*%
D25*
%TO.P,U1,1,PD3*%
%TO.N,Net-(U1-PD3)*%
X136086000Y-108990000D03*
D26*
%TO.P,U1,2,PD4*%
%TO.N,Net-(BZ1-+)*%
X136086000Y-108540000D03*
%TO.P,U1,3,VCC*%
%TO.N,VCC*%
X136086000Y-108090000D03*
%TO.P,U1,4,GND*%
%TO.N,GND*%
X136086000Y-107640000D03*
%TO.P,U1,5,XTAL1/PB6*%
%TO.N,Net-(U1-XTAL1{slash}PB6)*%
X136086000Y-107190000D03*
%TO.P,U1,6,XTAL2/PB7*%
%TO.N,Net-(U1-XTAL2{slash}PB7)*%
X136086000Y-106740000D03*
D27*
%TO.P,U1,7,PD5*%
%TO.N,unconnected-(U1-PD5-Pad7)*%
X136086000Y-106290000D03*
D28*
%TO.P,U1,8,PD6*%
%TO.N,unconnected-(U1-PD6-Pad8)*%
X135486000Y-105690000D03*
D29*
%TO.P,U1,9,PD7*%
%TO.N,unconnected-(U1-PD7-Pad9)*%
X135036000Y-105690000D03*
%TO.P,U1,10,PB0*%
%TO.N,unconnected-(U1-PB0-Pad10)*%
X134586000Y-105690000D03*
%TO.P,U1,11,PB1*%
%TO.N,/MF-RST*%
X134136000Y-105690000D03*
%TO.P,U1,12,PB2*%
%TO.N,/MF-SDA*%
X133686000Y-105690000D03*
%TO.P,U1,13,PB3*%
%TO.N,/MF-MOSI*%
X133236000Y-105690000D03*
D30*
%TO.P,U1,14,PB4*%
%TO.N,/MF-MISO*%
X132786000Y-105690000D03*
D31*
%TO.P,U1,15,PB5*%
%TO.N,/MF-SCK*%
X132186000Y-106290000D03*
D26*
%TO.P,U1,16,AVCC*%
%TO.N,VCC*%
X132186000Y-106740000D03*
%TO.P,U1,17,AREF*%
X132186000Y-107190000D03*
%TO.P,U1,18,GND*%
%TO.N,GND*%
X132186000Y-107640000D03*
%TO.P,U1,19,PC0*%
%TO.N,unconnected-(U1-PC0-Pad19)*%
X132186000Y-108090000D03*
%TO.P,U1,20,PC1*%
%TO.N,unconnected-(U1-PC1-Pad20)*%
X132186000Y-108540000D03*
D32*
%TO.P,U1,21,PC2*%
%TO.N,unconnected-(U1-PC2-Pad21)*%
X132186000Y-108990000D03*
D33*
%TO.P,U1,22,PC3*%
%TO.N,unconnected-(U1-PC3-Pad22)*%
X132786000Y-109590000D03*
D29*
%TO.P,U1,23,PC4*%
%TO.N,unconnected-(U1-PC4-Pad23)*%
X133236000Y-109590000D03*
%TO.P,U1,24,PC5*%
%TO.N,unconnected-(U1-PC5-Pad24)*%
X133686000Y-109590000D03*
%TO.P,U1,25,~{RESET}/PC6*%
%TO.N,/RST*%
X134136000Y-109590000D03*
%TO.P,U1,26,PD0*%
%TO.N,/RxD*%
X134586000Y-109590000D03*
%TO.P,U1,27,PD1*%
%TO.N,/TxD*%
X135036000Y-109590000D03*
D34*
%TO.P,U1,28,PD2*%
%TO.N,unconnected-(U1-PD2-Pad28)*%
X135486000Y-109590000D03*
D35*
%TO.P,U1,29,GND*%
%TO.N,GND*%
X134136000Y-107640000D03*
%TD*%
D36*
%TO.P,R1,1*%
%TO.N,Net-(U1-PD3)*%
X133477000Y-123171500D03*
%TO.P,R1,2*%
%TO.N,Net-(D1-A)*%
X133477000Y-121521500D03*
%TD*%
D10*
%TO.P,C4,1*%
%TO.N,+3.3V*%
X134239000Y-96393000D03*
%TO.P,C4,2*%
%TO.N,GND*%
X132689000Y-96393000D03*
%TD*%
D37*
%TO.P,D1,1,K*%
%TO.N,GND*%
X123952000Y-122301000D03*
%TO.P,D1,2,A*%
%TO.N,Net-(D1-A)*%
X128227000Y-122301000D03*
%TD*%
D22*
%TO.P,SW1,1,1*%
%TO.N,/RST*%
X122405000Y-95576000D03*
X128905000Y-95576000D03*
%TO.P,SW1,2,2*%
%TO.N,GND*%
X122405000Y-100076000D03*
X128905000Y-100076000D03*
%TD*%
D38*
%TO.N,GND*%
X141478000Y-122047000D03*
X138176000Y-107915000D03*
X129108531Y-106802590D03*
%TO.N,Net-(U1-XTAL1{slash}PB6)*%
X138938000Y-106680000D03*
X141478000Y-105156000D03*
%TO.N,Net-(U1-XTAL2{slash}PB7)*%
X139870265Y-106596265D03*
X141478000Y-109601000D03*
%TO.N,VCC*%
X139179000Y-107857151D03*
X130937000Y-106934000D03*
X128270000Y-112191000D03*
%TO.N,+3.3V*%
X151257000Y-115824000D03*
X147066000Y-101092000D03*
%TO.N,/MF-RST*%
X136144000Y-104013000D03*
%TO.N,/MF-SCK*%
X130810000Y-104775000D03*
X143764000Y-102362000D03*
%TO.N,/MF-MISO*%
X131953000Y-103378000D03*
X148590000Y-106553000D03*
%TO.N,/MF-SDA*%
X139192000Y-105283000D03*
X144653000Y-104521000D03*
X136906000Y-105791000D03*
X146316000Y-100711000D03*
%TO.N,Net-(U1-PD3)*%
X138938000Y-110617000D03*
X135001000Y-124968000D03*
%TO.N,/RST*%
X129159000Y-105156000D03*
X130937000Y-96647000D03*
%TD*%
D39*
%TO.N,GND*%
X136086000Y-107640000D02*
X137901000Y-107640000D01*
X134136000Y-114390000D02*
X136586000Y-116840000D01*
X138811000Y-118110000D02*
X138811000Y-118872000D01*
X146304000Y-116078000D02*
X147955000Y-116078000D01*
X141224000Y-121793000D02*
X141478000Y-122047000D01*
X137901000Y-107640000D02*
X138176000Y-107915000D01*
X145161000Y-118655785D02*
X145161000Y-117221000D01*
X138811000Y-118872000D02*
X138811000Y-120523000D01*
X137541000Y-116840000D02*
X138811000Y-118110000D01*
X133636000Y-113890000D02*
X134136000Y-114390000D01*
X131686000Y-113890000D02*
X133636000Y-113890000D01*
X145161000Y-117221000D02*
X146304000Y-116078000D01*
X149098000Y-114935000D02*
X153797000Y-114935000D01*
X140081000Y-121793000D02*
X141224000Y-121793000D01*
X147955000Y-116078000D02*
X149098000Y-114935000D01*
X132186000Y-107640000D02*
X136086000Y-107640000D01*
X138811000Y-120523000D02*
X140081000Y-121793000D01*
X153797000Y-114935000D02*
X154305000Y-114427000D01*
X136586000Y-116840000D02*
X137541000Y-116840000D01*
%TO.N,Net-(BZ1-+)*%
X141478000Y-119972785D02*
X145161000Y-123655785D01*
X137242000Y-108540000D02*
X137795000Y-109093000D01*
X136086000Y-108540000D02*
X137242000Y-108540000D01*
X137795000Y-109093000D02*
X138557000Y-109093000D01*
X138557000Y-109093000D02*
X141478000Y-112014000D01*
X141478000Y-112014000D02*
X141478000Y-119972785D01*
%TO.N,Net-(U1-XTAL1{slash}PB6)*%
X137579471Y-107190000D02*
X138089471Y-106680000D01*
X142186000Y-105864000D02*
X141478000Y-105156000D01*
X138089471Y-106680000D02*
X138938000Y-106680000D01*
X145161000Y-105864000D02*
X142186000Y-105864000D01*
X136086000Y-107190000D02*
X137579471Y-107190000D01*
%TO.N,Net-(U1-XTAL2{slash}PB7)*%
X142621000Y-110744000D02*
X141478000Y-109601000D01*
X138014000Y-106080000D02*
X139354000Y-106080000D01*
X137414000Y-106680000D02*
X138014000Y-106080000D01*
X139354000Y-106080000D02*
X139870265Y-106596265D01*
X145161000Y-110744000D02*
X142621000Y-110744000D01*
X137354000Y-106740000D02*
X137414000Y-106680000D01*
X136086000Y-106740000D02*
X137354000Y-106740000D01*
%TO.N,VCC*%
X129593000Y-115390000D02*
X129095500Y-115887500D01*
X130175000Y-117729000D02*
X132334000Y-117729000D01*
X137922000Y-108585000D02*
X137427000Y-108090000D01*
X128270000Y-115062000D02*
X128270000Y-112191000D01*
X130937000Y-106934000D02*
X130048000Y-106045000D01*
X131686000Y-115390000D02*
X129593000Y-115390000D01*
X132334000Y-117729000D02*
X136144000Y-121539000D01*
X131131000Y-106740000D02*
X130937000Y-106934000D01*
X129098000Y-115890000D02*
X129095500Y-115887500D01*
D40*
X134239000Y-100076000D02*
X138138500Y-100076000D01*
D39*
X128270000Y-112191000D02*
X125872000Y-112191000D01*
X132186000Y-106740000D02*
X131131000Y-106740000D01*
X132080000Y-101854000D02*
X133477000Y-101854000D01*
X129098000Y-116652000D02*
X130175000Y-117729000D01*
X132334000Y-117729000D02*
X132636000Y-117427000D01*
D40*
X138138500Y-100076000D02*
X138226000Y-100163500D01*
D39*
X138451151Y-108585000D02*
X137922000Y-108585000D01*
X130048000Y-103886000D02*
X132080000Y-101854000D01*
D40*
X136144000Y-123114000D02*
X136144000Y-121539000D01*
D39*
X134239000Y-101092000D02*
X134239000Y-100076000D01*
X132186000Y-107190000D02*
X131193000Y-107190000D01*
X133477000Y-101854000D02*
X134239000Y-101092000D01*
X137427000Y-108090000D02*
X136086000Y-108090000D01*
X130048000Y-106045000D02*
X130048000Y-103886000D01*
X139179000Y-107857151D02*
X138451151Y-108585000D01*
X129098000Y-115890000D02*
X129098000Y-116652000D01*
X131193000Y-107190000D02*
X130937000Y-106934000D01*
X129095500Y-115887500D02*
X128270000Y-115062000D01*
X132636000Y-117427000D02*
X132636000Y-116840000D01*
X131686000Y-115890000D02*
X129098000Y-115890000D01*
D40*
%TO.N,+3.3V*%
X135636000Y-97155000D02*
X135636000Y-97663000D01*
X138226000Y-97863500D02*
X144526000Y-97863500D01*
D39*
X151384000Y-119507000D02*
X154305000Y-119507000D01*
D40*
X134874000Y-96393000D02*
X135636000Y-97155000D01*
D39*
X150368000Y-118491000D02*
X151384000Y-119507000D01*
D40*
X146377500Y-97863500D02*
X147066000Y-98552000D01*
X147066000Y-98552000D02*
X147066000Y-101092000D01*
X135636000Y-97663000D02*
X135836500Y-97863500D01*
X135836500Y-97863500D02*
X138226000Y-97863500D01*
X144526000Y-97863500D02*
X146377500Y-97863500D01*
D39*
X151257000Y-115824000D02*
X150368000Y-116713000D01*
D40*
X134239000Y-96393000D02*
X134874000Y-96393000D01*
D39*
X150368000Y-116713000D02*
X150368000Y-118491000D01*
D40*
%TO.N,Net-(D1-A)*%
X130683000Y-122428000D02*
X130556000Y-122301000D01*
X131589500Y-121521500D02*
X130683000Y-122428000D01*
X133477000Y-121521500D02*
X131589500Y-121521500D01*
X130556000Y-122301000D02*
X128227000Y-122301000D01*
D39*
%TO.N,/MF-RST*%
X134136000Y-104878000D02*
X134747000Y-104267000D01*
X135001000Y-104013000D02*
X136144000Y-104013000D01*
X134747000Y-104267000D02*
X135001000Y-104013000D01*
X134136000Y-105690000D02*
X134136000Y-104878000D01*
%TO.N,/MF-MOSI*%
X140462000Y-102489000D02*
X133731000Y-102489000D01*
X147066000Y-105029000D02*
X145796000Y-103759000D01*
X133236000Y-102984000D02*
X133236000Y-105690000D01*
X154305000Y-106807000D02*
X152019000Y-106807000D01*
X145796000Y-103759000D02*
X141732000Y-103759000D01*
X141732000Y-103759000D02*
X140462000Y-102489000D01*
X152019000Y-106807000D02*
X150241000Y-105029000D01*
X150241000Y-105029000D02*
X147066000Y-105029000D01*
X133731000Y-102489000D02*
X133236000Y-102984000D01*
%TO.N,/MF-SCK*%
X130810000Y-104775000D02*
X130810000Y-104914000D01*
X148209000Y-103886000D02*
X151257000Y-103886000D01*
X151638000Y-104267000D02*
X154305000Y-104267000D01*
X143764000Y-102362000D02*
X146685000Y-102362000D01*
X146685000Y-102362000D02*
X148209000Y-103886000D01*
X130810000Y-104914000D02*
X132186000Y-106290000D01*
X151257000Y-103886000D02*
X151638000Y-104267000D01*
%TO.N,/MF-MISO*%
X132786000Y-104719000D02*
X132786000Y-105690000D01*
X151384000Y-109347000D02*
X148590000Y-106553000D01*
X131953000Y-103378000D02*
X131953000Y-103886000D01*
X131953000Y-103886000D02*
X132786000Y-104719000D01*
X154305000Y-109347000D02*
X151384000Y-109347000D01*
%TO.N,/MF-SDA*%
X139919000Y-104556000D02*
X144618000Y-104556000D01*
X135197314Y-103251000D02*
X133686000Y-104762314D01*
X136230529Y-103251000D02*
X135197314Y-103251000D01*
X133686000Y-104762314D02*
X133686000Y-105690000D01*
X136906000Y-105791000D02*
X136906000Y-103926471D01*
X151384000Y-101727000D02*
X154305000Y-101727000D01*
X146316000Y-101190529D02*
X146817471Y-101692000D01*
X139192000Y-105283000D02*
X139919000Y-104556000D01*
X146817471Y-101692000D02*
X147482000Y-101692000D01*
X146316000Y-100711000D02*
X146316000Y-101190529D01*
X147482000Y-101692000D02*
X147828000Y-101346000D01*
X147828000Y-101346000D02*
X151003000Y-101346000D01*
X144618000Y-104556000D02*
X144653000Y-104521000D01*
X151003000Y-101346000D02*
X151384000Y-101727000D01*
X136906000Y-103926471D02*
X136230529Y-103251000D01*
%TO.N,Net-(J2-D-)*%
X130257000Y-114890000D02*
X131686000Y-114890000D01*
X126963000Y-109691000D02*
X128524000Y-111252000D01*
X128524000Y-111252000D02*
X129032000Y-111252000D01*
X129159000Y-111379000D02*
X129159000Y-113792000D01*
X129032000Y-111252000D02*
X129159000Y-111379000D01*
X125872000Y-109691000D02*
X126963000Y-109691000D01*
X129159000Y-113792000D02*
X130257000Y-114890000D01*
%TO.N,Net-(J2-D+)*%
X125105000Y-108458000D02*
X126619000Y-108458000D01*
X128905000Y-110744000D02*
X129540000Y-110744000D01*
X129794000Y-110998000D02*
X129794000Y-113538000D01*
X129540000Y-110744000D02*
X129794000Y-110998000D01*
X123872000Y-109691000D02*
X125105000Y-108458000D01*
X130646000Y-114390000D02*
X131686000Y-114390000D01*
X129794000Y-113538000D02*
X130646000Y-114390000D01*
X126619000Y-108458000D02*
X128905000Y-110744000D01*
%TO.N,Net-(U1-PD3)*%
X136086000Y-108990000D02*
X137057000Y-108990000D01*
X137668000Y-109601000D02*
X138430000Y-109601000D01*
X138430000Y-109601000D02*
X138938000Y-110109000D01*
X137414000Y-109347000D02*
X137668000Y-109601000D01*
X135001000Y-124968000D02*
X133477000Y-123444000D01*
X133477000Y-123444000D02*
X133477000Y-123171500D01*
X137057000Y-108990000D02*
X137414000Y-109347000D01*
X138938000Y-110109000D02*
X138938000Y-110617000D01*
%TO.N,/RST*%
X133800314Y-110490000D02*
X134136000Y-110154314D01*
X130302000Y-109220000D02*
X132032000Y-110950000D01*
X133096000Y-110490000D02*
X133800314Y-110490000D01*
D40*
X122405000Y-95576000D02*
X128905000Y-95576000D01*
D39*
X132032000Y-110950000D02*
X132636000Y-110950000D01*
X130302000Y-107147529D02*
X130302000Y-109220000D01*
X134136000Y-110154314D02*
X134136000Y-109590000D01*
X132636000Y-110950000D02*
X133096000Y-110490000D01*
D40*
X129866000Y-95576000D02*
X130937000Y-96647000D01*
D39*
X132636000Y-111940000D02*
X132636000Y-110950000D01*
D40*
X128905000Y-95576000D02*
X129866000Y-95576000D01*
D39*
X129159000Y-105156000D02*
X129159000Y-106004529D01*
X129159000Y-106004529D02*
X130302000Y-107147529D01*
%TO.N,/RxD*%
X134493000Y-110617000D02*
X134586000Y-110524000D01*
X134239000Y-110617000D02*
X134493000Y-110617000D01*
X134586000Y-110524000D02*
X134586000Y-109590000D01*
X133636000Y-111220000D02*
X134239000Y-110617000D01*
X133636000Y-111940000D02*
X133636000Y-111220000D01*
%TO.N,/TxD*%
X134136000Y-111482000D02*
X134620000Y-110998000D01*
X134136000Y-111940000D02*
X134136000Y-111482000D01*
X135036000Y-110836000D02*
X135036000Y-109590000D01*
X134874000Y-110998000D02*
X135036000Y-110836000D01*
X134620000Y-110998000D02*
X134874000Y-110998000D01*
%TD*%
%TA.AperFunction,Conductor*%
%TO.N,GND*%
G36*
X135418514Y-112824501D02*
G01*
X135418674Y-112823905D01*
X135426524Y-112826008D01*
X135426526Y-112826008D01*
X135426528Y-112826009D01*
X135536599Y-112840500D01*
X135561498Y-112840499D01*
X135628536Y-112860181D01*
X135674293Y-112912984D01*
X135685500Y-112964495D01*
X135685500Y-112989402D01*
X135699989Y-113099468D01*
X135702094Y-113107322D01*
X135698814Y-113108200D01*
X135704581Y-113162073D01*
X135701517Y-113172522D01*
X135702095Y-113172677D01*
X135699990Y-113180529D01*
X135685500Y-113290598D01*
X135685500Y-113489403D01*
X135699989Y-113599468D01*
X135702094Y-113607322D01*
X135698814Y-113608200D01*
X135704581Y-113662073D01*
X135701517Y-113672522D01*
X135702095Y-113672677D01*
X135699990Y-113680529D01*
X135685500Y-113790598D01*
X135685500Y-113989403D01*
X135699989Y-114099468D01*
X135702094Y-114107322D01*
X135698814Y-114108200D01*
X135704581Y-114162073D01*
X135701517Y-114172522D01*
X135702095Y-114172677D01*
X135699990Y-114180529D01*
X135685500Y-114290598D01*
X135685500Y-114489403D01*
X135699989Y-114599468D01*
X135702094Y-114607322D01*
X135698814Y-114608200D01*
X135704581Y-114662073D01*
X135701517Y-114672522D01*
X135702095Y-114672677D01*
X135699990Y-114680529D01*
X135685500Y-114790598D01*
X135685500Y-114989403D01*
X135699989Y-115099468D01*
X135702094Y-115107322D01*
X135698814Y-115108200D01*
X135704581Y-115162073D01*
X135701517Y-115172522D01*
X135702095Y-115172677D01*
X135699990Y-115180529D01*
X135685500Y-115290598D01*
X135685500Y-115489403D01*
X135699989Y-115599468D01*
X135702094Y-115607322D01*
X135698814Y-115608200D01*
X135704581Y-115662073D01*
X135701517Y-115672522D01*
X135702095Y-115672677D01*
X135699990Y-115680529D01*
X135685501Y-115790589D01*
X135685500Y-115790605D01*
X135685500Y-115815500D01*
X135665815Y-115882539D01*
X135613011Y-115928294D01*
X135561504Y-115939500D01*
X135536597Y-115939500D01*
X135426531Y-115953989D01*
X135418678Y-115956094D01*
X135417802Y-115952824D01*
X135363853Y-115958567D01*
X135353477Y-115955518D01*
X135353323Y-115956095D01*
X135345470Y-115953990D01*
X135235401Y-115939500D01*
X135036596Y-115939500D01*
X134926531Y-115953989D01*
X134918678Y-115956094D01*
X134917802Y-115952824D01*
X134863853Y-115958567D01*
X134853477Y-115955518D01*
X134853323Y-115956095D01*
X134845470Y-115953990D01*
X134735401Y-115939500D01*
X134536596Y-115939500D01*
X134426531Y-115953989D01*
X134418678Y-115956094D01*
X134417802Y-115952824D01*
X134363853Y-115958567D01*
X134353477Y-115955518D01*
X134353323Y-115956095D01*
X134345470Y-115953990D01*
X134235401Y-115939500D01*
X134036596Y-115939500D01*
X133926531Y-115953989D01*
X133918678Y-115956094D01*
X133917802Y-115952824D01*
X133863853Y-115958567D01*
X133853477Y-115955518D01*
X133853323Y-115956095D01*
X133845470Y-115953990D01*
X133735401Y-115939500D01*
X133536596Y-115939500D01*
X133426531Y-115953989D01*
X133418678Y-115956094D01*
X133417802Y-115952824D01*
X133363853Y-115958567D01*
X133353477Y-115955518D01*
X133353323Y-115956095D01*
X133345470Y-115953990D01*
X133235401Y-115939500D01*
X133036596Y-115939500D01*
X132926531Y-115953989D01*
X132918678Y-115956094D01*
X132917802Y-115952824D01*
X132863853Y-115958567D01*
X132853477Y-115955518D01*
X132853323Y-115956095D01*
X132845470Y-115953990D01*
X132735410Y-115939501D01*
X132735407Y-115939500D01*
X132735401Y-115939500D01*
X132735394Y-115939500D01*
X132710499Y-115939500D01*
X132643460Y-115919815D01*
X132597705Y-115867011D01*
X132586499Y-115815500D01*
X132586499Y-115790597D01*
X132578741Y-115731668D01*
X132572009Y-115680528D01*
X132572008Y-115680525D01*
X132569905Y-115672674D01*
X132573207Y-115671789D01*
X132567392Y-115618075D01*
X132570501Y-115607485D01*
X132569905Y-115607326D01*
X132572008Y-115599475D01*
X132572008Y-115599474D01*
X132572009Y-115599472D01*
X132586500Y-115489401D01*
X132586499Y-115290600D01*
X132572009Y-115180528D01*
X132572008Y-115180525D01*
X132569905Y-115172674D01*
X132573207Y-115171789D01*
X132567392Y-115118075D01*
X132570501Y-115107485D01*
X132569905Y-115107326D01*
X132572008Y-115099475D01*
X132572008Y-115099474D01*
X132572009Y-115099472D01*
X132586500Y-114989401D01*
X132586499Y-114790600D01*
X132572009Y-114680528D01*
X132572008Y-114680525D01*
X132569905Y-114672674D01*
X132573207Y-114671789D01*
X132567392Y-114618075D01*
X132570501Y-114607485D01*
X132569905Y-114607326D01*
X132572008Y-114599475D01*
X132572008Y-114599474D01*
X132572009Y-114599472D01*
X132586500Y-114489401D01*
X132586499Y-114290600D01*
X132586499Y-114290598D01*
X132586499Y-114290596D01*
X132572011Y-114180536D01*
X132572009Y-114180529D01*
X132572009Y-114180528D01*
X132515279Y-114043571D01*
X132455360Y-113965484D01*
X132430168Y-113900318D01*
X132444206Y-113831873D01*
X132455356Y-113814521D01*
X132515279Y-113736429D01*
X132572009Y-113599472D01*
X132586500Y-113489401D01*
X132586499Y-113290600D01*
X132586323Y-113289265D01*
X132581490Y-113252547D01*
X132572009Y-113180528D01*
X132572008Y-113180525D01*
X132569905Y-113172674D01*
X132573207Y-113171789D01*
X132567392Y-113118075D01*
X132570501Y-113107485D01*
X132569905Y-113107326D01*
X132572008Y-113099475D01*
X132572008Y-113099474D01*
X132572009Y-113099472D01*
X132586500Y-112989401D01*
X132586500Y-112964499D01*
X132606185Y-112897460D01*
X132658989Y-112851705D01*
X132710500Y-112840499D01*
X132735402Y-112840499D01*
X132764382Y-112836683D01*
X132845472Y-112826009D01*
X132845475Y-112826007D01*
X132853326Y-112823905D01*
X132854210Y-112827207D01*
X132907925Y-112821392D01*
X132918514Y-112824501D01*
X132918674Y-112823905D01*
X132926524Y-112826008D01*
X132926526Y-112826008D01*
X132926528Y-112826009D01*
X133036599Y-112840500D01*
X133235400Y-112840499D01*
X133235401Y-112840499D01*
X133252087Y-112838302D01*
X133345472Y-112826009D01*
X133345475Y-112826007D01*
X133353326Y-112823905D01*
X133354210Y-112827207D01*
X133407925Y-112821392D01*
X133418514Y-112824501D01*
X133418674Y-112823905D01*
X133426524Y-112826008D01*
X133426526Y-112826008D01*
X133426528Y-112826009D01*
X133536599Y-112840500D01*
X133735400Y-112840499D01*
X133735401Y-112840499D01*
X133752087Y-112838302D01*
X133845472Y-112826009D01*
X133845475Y-112826007D01*
X133853326Y-112823905D01*
X133854210Y-112827207D01*
X133907925Y-112821392D01*
X133918514Y-112824501D01*
X133918674Y-112823905D01*
X133926524Y-112826008D01*
X133926526Y-112826008D01*
X133926528Y-112826009D01*
X134036599Y-112840500D01*
X134235400Y-112840499D01*
X134235401Y-112840499D01*
X134252087Y-112838302D01*
X134345472Y-112826009D01*
X134345475Y-112826007D01*
X134353326Y-112823905D01*
X134354210Y-112827207D01*
X134407925Y-112821392D01*
X134418514Y-112824501D01*
X134418674Y-112823905D01*
X134426524Y-112826008D01*
X134426526Y-112826008D01*
X134426528Y-112826009D01*
X134536599Y-112840500D01*
X134735400Y-112840499D01*
X134735401Y-112840499D01*
X134752087Y-112838302D01*
X134845472Y-112826009D01*
X134845475Y-112826007D01*
X134853326Y-112823905D01*
X134854210Y-112827207D01*
X134907925Y-112821392D01*
X134918514Y-112824501D01*
X134918674Y-112823905D01*
X134926524Y-112826008D01*
X134926526Y-112826008D01*
X134926528Y-112826009D01*
X135036599Y-112840500D01*
X135235400Y-112840499D01*
X135235401Y-112840499D01*
X135252087Y-112838302D01*
X135345472Y-112826009D01*
X135345475Y-112826007D01*
X135353326Y-112823905D01*
X135354210Y-112827207D01*
X135407925Y-112821392D01*
X135418514Y-112824501D01*
G37*
%TD.AperFunction*%
%TA.AperFunction,Conductor*%
G36*
X133586599Y-106590500D02*
G01*
X133785400Y-106590499D01*
X133785401Y-106590499D01*
X133849438Y-106582068D01*
X133894819Y-106576095D01*
X133927181Y-106576095D01*
X134036599Y-106590500D01*
X134235400Y-106590499D01*
X134235401Y-106590499D01*
X134299438Y-106582068D01*
X134344819Y-106576095D01*
X134377181Y-106576095D01*
X134486599Y-106590500D01*
X134685400Y-106590499D01*
X134685401Y-106590499D01*
X134749438Y-106582068D01*
X134794819Y-106576095D01*
X134827181Y-106576095D01*
X134936599Y-106590500D01*
X135061500Y-106590499D01*
X135128539Y-106610183D01*
X135174294Y-106662987D01*
X135185500Y-106714498D01*
X135185500Y-106839395D01*
X135199904Y-106948816D01*
X135199903Y-106981182D01*
X135185500Y-107090595D01*
X135185500Y-107289403D01*
X135199988Y-107399463D01*
X135199991Y-107399472D01*
X135256721Y-107536430D01*
X135278271Y-107564516D01*
X135303464Y-107629685D01*
X135289424Y-107698130D01*
X135278271Y-107715484D01*
X135256721Y-107743569D01*
X135199991Y-107880527D01*
X135199990Y-107880529D01*
X135185500Y-107990598D01*
X135185500Y-108189395D01*
X135199904Y-108298816D01*
X135199903Y-108331182D01*
X135185500Y-108440595D01*
X135185500Y-108565500D01*
X135165815Y-108632539D01*
X135113011Y-108678294D01*
X135061501Y-108689500D01*
X134936603Y-108689500D01*
X134827182Y-108703904D01*
X134794816Y-108703903D01*
X134685403Y-108689500D01*
X134486603Y-108689500D01*
X134377182Y-108703904D01*
X134344816Y-108703903D01*
X134235403Y-108689500D01*
X134036603Y-108689500D01*
X133927182Y-108703904D01*
X133894816Y-108703903D01*
X133785403Y-108689500D01*
X133586603Y-108689500D01*
X133477182Y-108703904D01*
X133444816Y-108703903D01*
X133335403Y-108689500D01*
X133210499Y-108689500D01*
X133143460Y-108669815D01*
X133097705Y-108617011D01*
X133086499Y-108565502D01*
X133086499Y-108440600D01*
X133086498Y-108440595D01*
X133072095Y-108331181D01*
X133072095Y-108298816D01*
X133086500Y-108189401D01*
X133086499Y-107990600D01*
X133086499Y-107990598D01*
X133086499Y-107990596D01*
X133072011Y-107880536D01*
X133072009Y-107880529D01*
X133072009Y-107880528D01*
X133015279Y-107743571D01*
X132993727Y-107715484D01*
X132968534Y-107650319D01*
X132982572Y-107581874D01*
X132993723Y-107564520D01*
X133015279Y-107536429D01*
X133072009Y-107399472D01*
X133086500Y-107289401D01*
X133086499Y-107090600D01*
X133086498Y-107090595D01*
X133072095Y-106981181D01*
X133072095Y-106948816D01*
X133086500Y-106839401D01*
X133086499Y-106714498D01*
X133106183Y-106647460D01*
X133158987Y-106601705D01*
X133210496Y-106590499D01*
X133335400Y-106590499D01*
X133335402Y-106590499D01*
X133416192Y-106579863D01*
X133444819Y-106576095D01*
X133477181Y-106576095D01*
X133586599Y-106590500D01*
G37*
%TD.AperFunction*%
%TA.AperFunction,Conductor*%
G36*
X138385986Y-107335233D02*
G01*
X138441919Y-107377105D01*
X138466336Y-107442569D01*
X138455189Y-107500943D01*
X138455511Y-107501056D01*
X138454755Y-107503216D01*
X138454374Y-107505212D01*
X138453213Y-107507622D01*
X138393630Y-107677901D01*
X138383837Y-107764819D01*
X138356770Y-107829233D01*
X138348298Y-107838616D01*
X138274256Y-107912658D01*
X138212933Y-107946143D01*
X138143241Y-107941159D01*
X138098894Y-107912658D01*
X137990152Y-107803916D01*
X137956667Y-107742593D01*
X137961651Y-107672901D01*
X137990148Y-107628558D01*
X138059991Y-107558716D01*
X138059992Y-107558713D01*
X138254972Y-107363733D01*
X138316294Y-107330249D01*
X138385986Y-107335233D01*
G37*
%TD.AperFunction*%
%TA.AperFunction,Conductor*%
G36*
X157938539Y-91960185D02*
G01*
X157984294Y-92012989D01*
X157995500Y-92064500D01*
X157995500Y-128534500D01*
X157975815Y-128601539D01*
X157923011Y-128647294D01*
X157871500Y-128658500D01*
X111114500Y-128658500D01*
X111047461Y-128638815D01*
X111001706Y-128586011D01*
X110990500Y-128534500D01*
X110990500Y-125901130D01*
X113076716Y-125901130D01*
X113076716Y-125901141D01*
X113096374Y-126213616D01*
X113096375Y-126213623D01*
X113155048Y-126521195D01*
X113251803Y-126818976D01*
X113251805Y-126818981D01*
X113385117Y-127102281D01*
X113385120Y-127102287D01*
X113552887Y-127366647D01*
X113552890Y-127366651D01*
X113552891Y-127366652D01*
X113752474Y-127607906D01*
X113980719Y-127822242D01*
X113980729Y-127822250D01*
X114234020Y-128006277D01*
X114234025Y-128006279D01*
X114234032Y-128006285D01*
X114508411Y-128157127D01*
X114508416Y-128157129D01*
X114508418Y-128157130D01*
X114508419Y-128157131D01*
X114799529Y-128272389D01*
X114799532Y-128272390D01*
X115102801Y-128350256D01*
X115102805Y-128350257D01*
X115167973Y-128358489D01*
X115413433Y-128389499D01*
X115413442Y-128389499D01*
X115413445Y-128389500D01*
X115413447Y-128389500D01*
X115726553Y-128389500D01*
X115726555Y-128389500D01*
X115726558Y-128389499D01*
X115726566Y-128389499D01*
X115911925Y-128366082D01*
X116037195Y-128350257D01*
X116340467Y-128272390D01*
X116340470Y-128272389D01*
X116631580Y-128157131D01*
X116631581Y-128157130D01*
X116631579Y-128157130D01*
X116631589Y-128157127D01*
X116905968Y-128006285D01*
X117159279Y-127822244D01*
X117387526Y-127607906D01*
X117587109Y-127366652D01*
X117754881Y-127102285D01*
X117888197Y-126818975D01*
X117984953Y-126521191D01*
X118043624Y-126213627D01*
X118063284Y-125901136D01*
X118063284Y-125901130D01*
X152573716Y-125901130D01*
X152573716Y-125901141D01*
X152593374Y-126213616D01*
X152593375Y-126213623D01*
X152652048Y-126521195D01*
X152748803Y-126818976D01*
X152748805Y-126818981D01*
X152882117Y-127102281D01*
X152882120Y-127102287D01*
X153049887Y-127366647D01*
X153049890Y-127366651D01*
X153049891Y-127366652D01*
X153249474Y-127607906D01*
X153477719Y-127822242D01*
X153477729Y-127822250D01*
X153731020Y-128006277D01*
X153731025Y-128006279D01*
X153731032Y-128006285D01*
X154005411Y-128157127D01*
X154005416Y-128157129D01*
X154005418Y-128157130D01*
X154005419Y-128157131D01*
X154296529Y-128272389D01*
X154296532Y-128272390D01*
X154599801Y-128350256D01*
X154599805Y-128350257D01*
X154664973Y-128358489D01*
X154910433Y-128389499D01*
X154910442Y-128389499D01*
X154910445Y-128389500D01*
X154910447Y-128389500D01*
X155223553Y-128389500D01*
X155223555Y-128389500D01*
X155223558Y-128389499D01*
X155223566Y-128389499D01*
X155408925Y-128366082D01*
X155534195Y-128350257D01*
X155837467Y-128272390D01*
X155837470Y-128272389D01*
X156128580Y-128157131D01*
X156128581Y-128157130D01*
X156128579Y-128157130D01*
X156128589Y-128157127D01*
X156402968Y-128006285D01*
X156656279Y-127822244D01*
X156884526Y-127607906D01*
X157084109Y-127366652D01*
X157251881Y-127102285D01*
X157385197Y-126818975D01*
X157481953Y-126521191D01*
X157540624Y-126213627D01*
X157560284Y-125901136D01*
X157550987Y-125753369D01*
X157540625Y-125588655D01*
X157540624Y-125588648D01*
X157540624Y-125588645D01*
X157481953Y-125281081D01*
X157385197Y-124983297D01*
X157251881Y-124699987D01*
X157125917Y-124501499D01*
X157084112Y-124435624D01*
X157070237Y-124418852D01*
X156884526Y-124194366D01*
X156656279Y-123980028D01*
X156656276Y-123980026D01*
X156656270Y-123980021D01*
X156402979Y-123795994D01*
X156402972Y-123795989D01*
X156402968Y-123795987D01*
X156128589Y-123645145D01*
X156128586Y-123645143D01*
X156128581Y-123645141D01*
X156128580Y-123645140D01*
X155837470Y-123529882D01*
X155837467Y-123529881D01*
X155534198Y-123452015D01*
X155534185Y-123452013D01*
X155223566Y-123412772D01*
X155223555Y-123412772D01*
X154910445Y-123412772D01*
X154910433Y-123412772D01*
X154599814Y-123452013D01*
X154599801Y-123452015D01*
X154296532Y-123529881D01*
X154296529Y-123529882D01*
X154005419Y-123645140D01*
X154005418Y-123645141D01*
X153731032Y-123795987D01*
X153731020Y-123795994D01*
X153477729Y-123980021D01*
X153477719Y-123980029D01*
X153261969Y-124182632D01*
X153249474Y-124194366D01*
X153209894Y-124242210D01*
X153049887Y-124435624D01*
X152882120Y-124699984D01*
X152882117Y-124699990D01*
X152748805Y-124983290D01*
X152748803Y-124983295D01*
X152652048Y-125281076D01*
X152593375Y-125588648D01*
X152593374Y-125588655D01*
X152573716Y-125901130D01*
X118063284Y-125901130D01*
X118053987Y-125753369D01*
X118043625Y-125588655D01*
X118043624Y-125588648D01*
X118043624Y-125588645D01*
X117984953Y-125281081D01*
X117888197Y-124983297D01*
X117754881Y-124699987D01*
X117628917Y-124501499D01*
X117587112Y-124435624D01*
X117573237Y-124418852D01*
X117387526Y-124194366D01*
X117159279Y-123980028D01*
X117159276Y-123980026D01*
X117159270Y-123980021D01*
X116905979Y-123795994D01*
X116905972Y-123795989D01*
X116905968Y-123795987D01*
X116631589Y-123645145D01*
X116631586Y-123645143D01*
X116631581Y-123645141D01*
X116631580Y-123645140D01*
X116340470Y-123529882D01*
X116340467Y-123529881D01*
X116037198Y-123452015D01*
X116037185Y-123452013D01*
X115726566Y-123412772D01*
X115726555Y-123412772D01*
X115413445Y-123412772D01*
X115413433Y-123412772D01*
X115102814Y-123452013D01*
X115102801Y-123452015D01*
X114799532Y-123529881D01*
X114799529Y-123529882D01*
X114508419Y-123645140D01*
X114508418Y-123645141D01*
X114234032Y-123795987D01*
X114234020Y-123795994D01*
X113980729Y-123980021D01*
X113980719Y-123980029D01*
X113764969Y-124182632D01*
X113752474Y-124194366D01*
X113712894Y-124242210D01*
X113552887Y-124435624D01*
X113385120Y-124699984D01*
X113385117Y-124699990D01*
X113251805Y-124983290D01*
X113251803Y-124983295D01*
X113155048Y-125281076D01*
X113096375Y-125588648D01*
X113096374Y-125588655D01*
X113076716Y-125901130D01*
X110990500Y-125901130D01*
X110990500Y-109690999D01*
X122662340Y-109690999D01*
X122662340Y-109691000D01*
X122682936Y-109913273D01*
X122682937Y-109913276D01*
X122744023Y-110127975D01*
X122744026Y-110127981D01*
X122811497Y-110263481D01*
X122843526Y-110327804D01*
X122965205Y-110488934D01*
X122978051Y-110505944D01*
X122991519Y-110518222D01*
X123143017Y-110656330D01*
X123143024Y-110656334D01*
X123143025Y-110656335D01*
X123332804Y-110773841D01*
X123332805Y-110773841D01*
X123332808Y-110773843D01*
X123540961Y-110854482D01*
X123760387Y-110895500D01*
X123760389Y-110895500D01*
X123983611Y-110895500D01*
X123983613Y-110895500D01*
X124203039Y-110854482D01*
X124411192Y-110773843D01*
X124600983Y-110656330D01*
X124752481Y-110518222D01*
X124765947Y-110505946D01*
X124765949Y-110505944D01*
X124765950Y-110505943D01*
X124773045Y-110496546D01*
X124829153Y-110454911D01*
X124898864Y-110450218D01*
X124960047Y-110483959D01*
X124970950Y-110496541D01*
X124976138Y-110503411D01*
X124978052Y-110505946D01*
X125099874Y-110617000D01*
X125143017Y-110656330D01*
X125305724Y-110757073D01*
X125352360Y-110809100D01*
X125363464Y-110878082D01*
X125335511Y-110942116D01*
X125277376Y-110980873D01*
X125240448Y-110986500D01*
X125120130Y-110986500D01*
X125120123Y-110986501D01*
X125060516Y-110992908D01*
X124925671Y-111043202D01*
X124925664Y-111043206D01*
X124810455Y-111129452D01*
X124810452Y-111129455D01*
X124724206Y-111244664D01*
X124724202Y-111244671D01*
X124673908Y-111379517D01*
X124669197Y-111423344D01*
X124667501Y-111439123D01*
X124667500Y-111439135D01*
X124667500Y-112942870D01*
X124667501Y-112942876D01*
X124673908Y-113002483D01*
X124724202Y-113137328D01*
X124724206Y-113137335D01*
X124810452Y-113252544D01*
X124810455Y-113252547D01*
X124925664Y-113338793D01*
X124925671Y-113338797D01*
X125060517Y-113389091D01*
X125060516Y-113389091D01*
X125067444Y-113389835D01*
X125120127Y-113395500D01*
X126623872Y-113395499D01*
X126683483Y-113389091D01*
X126818331Y-113338796D01*
X126933546Y-113252546D01*
X127019796Y-113137331D01*
X127070091Y-113002483D01*
X127076500Y-112942873D01*
X127076500Y-112915500D01*
X127096185Y-112848461D01*
X127148989Y-112802706D01*
X127200500Y-112791500D01*
X127545500Y-112791500D01*
X127612539Y-112811185D01*
X127658294Y-112863989D01*
X127669500Y-112915500D01*
X127669500Y-114975330D01*
X127669499Y-114975348D01*
X127669499Y-115141054D01*
X127669498Y-115141054D01*
X127710422Y-115293783D01*
X127726562Y-115321739D01*
X127789475Y-115430709D01*
X127789481Y-115430717D01*
X127908349Y-115549585D01*
X127908355Y-115549590D01*
X128461181Y-116102416D01*
X128494666Y-116163739D01*
X128497500Y-116190097D01*
X128497500Y-116565330D01*
X128497499Y-116565348D01*
X128497499Y-116731054D01*
X128497498Y-116731054D01*
X128538423Y-116883785D01*
X128567358Y-116933900D01*
X128567359Y-116933904D01*
X128567360Y-116933904D01*
X128617479Y-117020714D01*
X128617481Y-117020717D01*
X128736349Y-117139585D01*
X128736355Y-117139590D01*
X129690139Y-118093374D01*
X129690149Y-118093385D01*
X129694479Y-118097715D01*
X129694480Y-118097716D01*
X129806284Y-118209520D01*
X129892359Y-118259215D01*
X129892360Y-118259216D01*
X129943209Y-118288574D01*
X129943210Y-118288575D01*
X129943212Y-118288575D01*
X129943215Y-118288577D01*
X130095943Y-118329501D01*
X130095946Y-118329501D01*
X130261653Y-118329501D01*
X130261669Y-118329500D01*
X132033903Y-118329500D01*
X132100942Y-118349185D01*
X132121584Y-118365819D01*
X134311149Y-120555384D01*
X134344634Y-120616707D01*
X134339650Y-120686399D01*
X134297778Y-120742332D01*
X134232314Y-120766749D01*
X134164041Y-120751897D01*
X134159318Y-120749182D01*
X134137289Y-120735865D01*
X134041606Y-120678022D01*
X133879196Y-120627414D01*
X133879194Y-120627413D01*
X133879192Y-120627413D01*
X133829778Y-120622923D01*
X133808616Y-120621000D01*
X133145384Y-120621000D01*
X133126145Y-120622748D01*
X133074807Y-120627413D01*
X132912393Y-120678022D01*
X132879009Y-120698204D01*
X132788171Y-120753117D01*
X132724023Y-120771000D01*
X131515576Y-120771000D01*
X131486742Y-120776734D01*
X131486743Y-120776735D01*
X131370592Y-120799839D01*
X131370586Y-120799841D01*
X131328337Y-120817342D01*
X131234008Y-120856414D01*
X131233998Y-120856419D01*
X131189259Y-120886314D01*
X131111082Y-120938549D01*
X131111079Y-120938552D01*
X130535451Y-121514181D01*
X130474128Y-121547666D01*
X130447770Y-121550500D01*
X129413999Y-121550500D01*
X129346960Y-121530815D01*
X129301205Y-121478011D01*
X129289999Y-121426500D01*
X129289999Y-120800998D01*
X129289998Y-120800981D01*
X129279499Y-120698203D01*
X129279498Y-120698200D01*
X129224314Y-120531666D01*
X129132212Y-120382344D01*
X129008156Y-120258288D01*
X128915388Y-120201069D01*
X128858836Y-120166187D01*
X128858831Y-120166185D01*
X128857362Y-120165698D01*
X128692297Y-120111001D01*
X128692295Y-120111000D01*
X128589510Y-120100500D01*
X127864498Y-120100500D01*
X127864480Y-120100501D01*
X127761703Y-120111000D01*
X127761700Y-120111001D01*
X127595168Y-120166185D01*
X127595163Y-120166187D01*
X127445842Y-120258289D01*
X127321789Y-120382342D01*
X127229687Y-120531663D01*
X127229685Y-120531668D01*
X127218746Y-120564681D01*
X127174501Y-120698203D01*
X127174501Y-120698204D01*
X127174500Y-120698204D01*
X127164000Y-120800983D01*
X127164000Y-123801001D01*
X127164001Y-123801018D01*
X127174500Y-123903796D01*
X127174501Y-123903799D01*
X127229685Y-124070331D01*
X127229687Y-124070336D01*
X127242855Y-124091685D01*
X127321788Y-124219656D01*
X127445844Y-124343712D01*
X127595166Y-124435814D01*
X127761703Y-124490999D01*
X127864491Y-124501500D01*
X128589508Y-124501499D01*
X128589516Y-124501498D01*
X128589519Y-124501498D01*
X128645802Y-124495748D01*
X128692297Y-124490999D01*
X128858834Y-124435814D01*
X129008156Y-124343712D01*
X129132212Y-124219656D01*
X129224314Y-124070334D01*
X129279499Y-123903797D01*
X129290000Y-123801009D01*
X129290000Y-123175500D01*
X129309685Y-123108461D01*
X129362489Y-123062706D01*
X129414000Y-123051500D01*
X130227655Y-123051500D01*
X130294694Y-123071185D01*
X130296544Y-123072397D01*
X130327504Y-123093083D01*
X130327505Y-123093083D01*
X130327506Y-123093084D01*
X130464087Y-123149658D01*
X130464091Y-123149658D01*
X130464092Y-123149659D01*
X130609080Y-123178500D01*
X130609083Y-123178500D01*
X130756919Y-123178500D01*
X130854461Y-123159096D01*
X130901912Y-123149658D01*
X131038494Y-123093084D01*
X131161416Y-123010952D01*
X131864048Y-122308318D01*
X131925371Y-122274834D01*
X131951729Y-122272000D01*
X132611480Y-122272000D01*
X132678519Y-122291685D01*
X132724274Y-122344489D01*
X132734218Y-122413647D01*
X132705193Y-122477203D01*
X132699161Y-122483681D01*
X132646531Y-122536310D01*
X132646530Y-122536311D01*
X132558522Y-122681893D01*
X132507913Y-122844307D01*
X132501500Y-122914886D01*
X132501500Y-123428113D01*
X132507913Y-123498692D01*
X132507913Y-123498694D01*
X132507914Y-123498696D01*
X132558522Y-123661106D01*
X132631539Y-123781891D01*
X132646530Y-123806688D01*
X132766811Y-123926969D01*
X132766813Y-123926970D01*
X132766815Y-123926972D01*
X132912394Y-124014978D01*
X133074804Y-124065586D01*
X133145384Y-124072000D01*
X133204403Y-124072000D01*
X133271442Y-124091685D01*
X133292084Y-124108319D01*
X134170298Y-124986533D01*
X134203783Y-125047856D01*
X134205837Y-125060330D01*
X134215630Y-125147249D01*
X134275210Y-125317521D01*
X134338465Y-125418190D01*
X134371184Y-125470262D01*
X134498738Y-125597816D01*
X134651478Y-125693789D01*
X134821745Y-125753368D01*
X134821750Y-125753369D01*
X135000996Y-125773565D01*
X135001000Y-125773565D01*
X135001004Y-125773565D01*
X135180249Y-125753369D01*
X135180252Y-125753368D01*
X135180255Y-125753368D01*
X135350522Y-125693789D01*
X135503262Y-125597816D01*
X135630816Y-125470262D01*
X135726789Y-125317522D01*
X135786368Y-125147255D01*
X135786369Y-125147249D01*
X135806565Y-124968003D01*
X135806565Y-124967996D01*
X135786369Y-124788750D01*
X135786368Y-124788745D01*
X135756594Y-124703655D01*
X135726789Y-124618478D01*
X135630816Y-124465738D01*
X135503262Y-124338184D01*
X135350521Y-124242210D01*
X135180249Y-124182630D01*
X135093330Y-124172837D01*
X135028916Y-124145770D01*
X135019533Y-124137298D01*
X134481724Y-123599489D01*
X134448239Y-123538166D01*
X134445914Y-123500586D01*
X134452500Y-123428113D01*
X134452500Y-122914886D01*
X134446361Y-122847331D01*
X134446086Y-122844304D01*
X134395478Y-122681894D01*
X134307472Y-122536315D01*
X134307470Y-122536313D01*
X134307469Y-122536311D01*
X134205339Y-122434181D01*
X134171854Y-122372858D01*
X134176838Y-122303166D01*
X134205339Y-122258819D01*
X134307468Y-122156689D01*
X134307469Y-122156688D01*
X134307472Y-122156685D01*
X134395478Y-122011106D01*
X134446086Y-121848696D01*
X134452500Y-121778116D01*
X134452500Y-121264884D01*
X134446086Y-121194304D01*
X134395478Y-121031894D01*
X134324316Y-120914179D01*
X134306481Y-120846627D01*
X134327998Y-120780153D01*
X134382039Y-120735865D01*
X134451444Y-120727824D01*
X134514179Y-120758583D01*
X134518115Y-120762350D01*
X135132181Y-121376416D01*
X135165666Y-121437739D01*
X135168500Y-121464097D01*
X135168500Y-121805681D01*
X135178563Y-121904183D01*
X135231450Y-122063784D01*
X135231455Y-122063795D01*
X135319716Y-122206887D01*
X135319719Y-122206891D01*
X135351647Y-122238819D01*
X135385132Y-122300142D01*
X135380148Y-122369834D01*
X135351647Y-122414181D01*
X135319719Y-122446108D01*
X135319716Y-122446112D01*
X135231455Y-122589204D01*
X135231451Y-122589213D01*
X135178564Y-122748815D01*
X135178564Y-122748816D01*
X135178563Y-122748816D01*
X135168500Y-122847318D01*
X135168500Y-123380681D01*
X135178563Y-123479183D01*
X135231450Y-123638784D01*
X135231455Y-123638795D01*
X135319716Y-123781887D01*
X135319719Y-123781891D01*
X135438608Y-123900780D01*
X135438612Y-123900783D01*
X135581704Y-123989044D01*
X135581707Y-123989045D01*
X135581713Y-123989049D01*
X135741315Y-124041936D01*
X135839826Y-124052000D01*
X135839831Y-124052000D01*
X136448169Y-124052000D01*
X136448174Y-124052000D01*
X136546685Y-124041936D01*
X136706287Y-123989049D01*
X136849391Y-123900781D01*
X136968281Y-123781891D01*
X137056549Y-123638787D01*
X137109436Y-123479185D01*
X137119500Y-123380674D01*
X137119500Y-122847326D01*
X137109436Y-122748815D01*
X137056549Y-122589213D01*
X137056545Y-122589207D01*
X137056544Y-122589204D01*
X136968283Y-122446112D01*
X136968280Y-122446108D01*
X136936353Y-122414181D01*
X136902868Y-122352858D01*
X136907852Y-122283166D01*
X136936353Y-122238819D01*
X136968281Y-122206891D01*
X137056549Y-122063787D01*
X137109436Y-121904185D01*
X137119500Y-121805674D01*
X137119500Y-121272326D01*
X137109436Y-121173815D01*
X137056549Y-121014213D01*
X137056545Y-121014207D01*
X137056544Y-121014204D01*
X136968283Y-120871112D01*
X136968280Y-120871108D01*
X136849391Y-120752219D01*
X136849387Y-120752216D01*
X136706295Y-120663955D01*
X136706289Y-120663952D01*
X136706287Y-120663951D01*
X136546685Y-120611064D01*
X136546683Y-120611063D01*
X136448181Y-120601000D01*
X136448174Y-120601000D01*
X136106598Y-120601000D01*
X136039559Y-120581315D01*
X136018917Y-120564681D01*
X133401204Y-117946969D01*
X133367719Y-117885646D01*
X133372703Y-117815954D01*
X133414575Y-117760021D01*
X133480039Y-117735604D01*
X133505068Y-117736348D01*
X133536599Y-117740500D01*
X133735400Y-117740499D01*
X133735401Y-117740499D01*
X133752087Y-117738302D01*
X133845472Y-117726009D01*
X133845475Y-117726007D01*
X133853326Y-117723905D01*
X133854210Y-117727207D01*
X133907925Y-117721392D01*
X133918514Y-117724501D01*
X133918674Y-117723905D01*
X133926524Y-117726008D01*
X133926526Y-117726008D01*
X133926528Y-117726009D01*
X134036599Y-117740500D01*
X134235400Y-117740499D01*
X134235401Y-117740499D01*
X134252087Y-117738302D01*
X134345472Y-117726009D01*
X134345475Y-117726007D01*
X134353326Y-117723905D01*
X134354210Y-117727207D01*
X134407925Y-117721392D01*
X134418514Y-117724501D01*
X134418674Y-117723905D01*
X134426524Y-117726008D01*
X134426526Y-117726008D01*
X134426528Y-117726009D01*
X134536599Y-117740500D01*
X134735400Y-117740499D01*
X134735401Y-117740499D01*
X134752087Y-117738302D01*
X134845472Y-117726009D01*
X134845475Y-117726007D01*
X134853326Y-117723905D01*
X134854210Y-117727207D01*
X134907925Y-117721392D01*
X134918514Y-117724501D01*
X134918674Y-117723905D01*
X134926524Y-117726008D01*
X134926526Y-117726008D01*
X134926528Y-117726009D01*
X135036599Y-117740500D01*
X135235400Y-117740499D01*
X135235401Y-117740499D01*
X135252087Y-117738302D01*
X135345472Y-117726009D01*
X135345475Y-117726007D01*
X135353326Y-117723905D01*
X135354210Y-117727207D01*
X135407925Y-117721392D01*
X135418514Y-117724501D01*
X135418674Y-117723905D01*
X135426524Y-117726008D01*
X135426526Y-117726008D01*
X135426528Y-117726009D01*
X135536599Y-117740500D01*
X135735400Y-117740499D01*
X135735403Y-117740499D01*
X135845463Y-117726011D01*
X135845467Y-117726009D01*
X135845472Y-117726009D01*
X135982429Y-117669279D01*
X136100036Y-117579036D01*
X136190279Y-117461429D01*
X136247009Y-117324472D01*
X136261500Y-117214401D01*
X136261499Y-116639498D01*
X136281183Y-116572460D01*
X136333987Y-116526705D01*
X136385499Y-116515499D01*
X136960403Y-116515499D01*
X137070463Y-116501011D01*
X137070467Y-116501009D01*
X137070472Y-116501009D01*
X137207429Y-116444279D01*
X137325036Y-116354036D01*
X137415279Y-116236429D01*
X137472009Y-116099472D01*
X137486500Y-115989401D01*
X137486499Y-115790600D01*
X137472009Y-115680528D01*
X137472008Y-115680525D01*
X137469905Y-115672674D01*
X137473207Y-115671789D01*
X137467392Y-115618075D01*
X137470501Y-115607485D01*
X137469905Y-115607326D01*
X137472008Y-115599475D01*
X137472008Y-115599474D01*
X137472009Y-115599472D01*
X137486500Y-115489401D01*
X137486499Y-115290600D01*
X137472009Y-115180528D01*
X137472008Y-115180525D01*
X137469905Y-115172674D01*
X137473207Y-115171789D01*
X137467392Y-115118075D01*
X137470501Y-115107485D01*
X137469905Y-115107326D01*
X137472008Y-115099475D01*
X137472008Y-115099474D01*
X137472009Y-115099472D01*
X137486500Y-114989401D01*
X137486499Y-114790600D01*
X137472009Y-114680528D01*
X137472008Y-114680525D01*
X137469905Y-114672674D01*
X137473207Y-114671789D01*
X137467392Y-114618075D01*
X137470501Y-114607485D01*
X137469905Y-114607326D01*
X137472008Y-114599475D01*
X137472008Y-114599474D01*
X137472009Y-114599472D01*
X137486500Y-114489401D01*
X137486499Y-114290600D01*
X137486498Y-114290596D01*
X137482105Y-114257224D01*
X137472009Y-114180528D01*
X137472008Y-114180525D01*
X137469905Y-114172674D01*
X137473207Y-114171789D01*
X137467392Y-114118075D01*
X137470501Y-114107485D01*
X137469905Y-114107326D01*
X137472008Y-114099475D01*
X137472008Y-114099474D01*
X137472009Y-114099472D01*
X137486500Y-113989401D01*
X137486499Y-113790600D01*
X137472009Y-113680528D01*
X137472008Y-113680525D01*
X137469905Y-113672674D01*
X137473207Y-113671789D01*
X137467392Y-113618075D01*
X137470501Y-113607485D01*
X137469905Y-113607326D01*
X137472008Y-113599475D01*
X137472008Y-113599474D01*
X137472009Y-113599472D01*
X137486500Y-113489401D01*
X137486499Y-113290600D01*
X137486323Y-113289265D01*
X137481490Y-113252547D01*
X137472009Y-113180528D01*
X137472008Y-113180525D01*
X137469905Y-113172674D01*
X137473207Y-113171789D01*
X137467392Y-113118075D01*
X137470501Y-113107485D01*
X137469905Y-113107326D01*
X137472008Y-113099475D01*
X137472008Y-113099474D01*
X137472009Y-113099472D01*
X137486500Y-112989401D01*
X137486499Y-112790600D01*
X137486499Y-112790598D01*
X137486499Y-112790596D01*
X137472011Y-112680536D01*
X137472009Y-112680529D01*
X137472009Y-112680528D01*
X137415279Y-112543571D01*
X137325036Y-112425964D01*
X137207429Y-112335721D01*
X137207425Y-112335719D01*
X137070472Y-112278991D01*
X137070470Y-112278990D01*
X136960410Y-112264501D01*
X136960407Y-112264500D01*
X136960401Y-112264500D01*
X136960394Y-112264500D01*
X136385499Y-112264500D01*
X136318460Y-112244815D01*
X136272705Y-112192011D01*
X136261499Y-112140500D01*
X136261499Y-111565596D01*
X136247011Y-111455536D01*
X136247009Y-111455531D01*
X136247009Y-111455528D01*
X136190279Y-111318571D01*
X136100036Y-111200964D01*
X135982429Y-111110721D01*
X135982425Y-111110719D01*
X135920375Y-111085017D01*
X135845472Y-111053991D01*
X135825657Y-111051382D01*
X135744315Y-111040673D01*
X135680419Y-111012406D01*
X135641948Y-110954081D01*
X135636501Y-110917734D01*
X135636501Y-110749347D01*
X135636500Y-110749329D01*
X135636500Y-110585261D01*
X135656185Y-110518222D01*
X135708989Y-110472467D01*
X135729833Y-110465113D01*
X135741943Y-110462023D01*
X135789673Y-110442253D01*
X135884531Y-110390456D01*
X135989836Y-110292413D01*
X136063253Y-110168673D01*
X136066607Y-110160577D01*
X136081833Y-110123815D01*
X136083023Y-110120943D01*
X136101024Y-110069916D01*
X136121500Y-109927500D01*
X136121500Y-109749500D01*
X136141185Y-109682461D01*
X136193989Y-109636706D01*
X136245500Y-109625500D01*
X136423502Y-109625500D01*
X136450516Y-109624052D01*
X136477532Y-109622604D01*
X136562195Y-109600996D01*
X136588232Y-109594351D01*
X136618896Y-109590500D01*
X136756903Y-109590500D01*
X136823942Y-109610185D01*
X136844584Y-109626819D01*
X137183139Y-109965374D01*
X137183149Y-109965385D01*
X137187479Y-109969715D01*
X137187480Y-109969716D01*
X137299284Y-110081520D01*
X137368158Y-110121284D01*
X137436215Y-110160577D01*
X137588942Y-110201500D01*
X137588943Y-110201500D01*
X138060536Y-110201500D01*
X138127575Y-110221185D01*
X138173330Y-110273989D01*
X138183274Y-110343147D01*
X138177577Y-110366455D01*
X138152633Y-110437737D01*
X138152630Y-110437750D01*
X138132435Y-110616996D01*
X138132435Y-110617003D01*
X138152630Y-110796249D01*
X138152631Y-110796254D01*
X138212211Y-110966523D01*
X138302816Y-111110719D01*
X138308184Y-111119262D01*
X138435738Y-111246816D01*
X138588478Y-111342789D01*
X138659967Y-111367804D01*
X138758745Y-111402368D01*
X138758750Y-111402369D01*
X138937996Y-111422565D01*
X138938000Y-111422565D01*
X138938004Y-111422565D01*
X139117249Y-111402369D01*
X139117252Y-111402368D01*
X139117255Y-111402368D01*
X139287522Y-111342789D01*
X139440262Y-111246816D01*
X139563243Y-111123834D01*
X139624562Y-111090352D01*
X139694254Y-111095336D01*
X139738602Y-111123837D01*
X140841181Y-112226416D01*
X140874666Y-112287739D01*
X140877500Y-112314097D01*
X140877500Y-119886115D01*
X140877499Y-119886133D01*
X140877499Y-120051839D01*
X140877498Y-120051839D01*
X140918423Y-120204570D01*
X140947358Y-120254685D01*
X140947359Y-120254689D01*
X140947360Y-120254689D01*
X140997479Y-120341499D01*
X140997481Y-120341502D01*
X141116349Y-120460370D01*
X141116355Y-120460375D01*
X143624181Y-122968201D01*
X143657666Y-123029524D01*
X143660500Y-123055882D01*
X143660500Y-124703655D01*
X143660501Y-124703661D01*
X143666908Y-124763268D01*
X143717202Y-124898113D01*
X143717206Y-124898120D01*
X143803452Y-125013329D01*
X143803455Y-125013332D01*
X143918664Y-125099578D01*
X143918671Y-125099582D01*
X144053517Y-125149876D01*
X144053516Y-125149876D01*
X144060444Y-125150620D01*
X144113127Y-125156285D01*
X146208872Y-125156284D01*
X146268483Y-125149876D01*
X146403331Y-125099581D01*
X146518546Y-125013331D01*
X146604796Y-124898116D01*
X146655091Y-124763268D01*
X146661500Y-124703658D01*
X146661499Y-122607913D01*
X146655091Y-122548302D01*
X146650620Y-122536315D01*
X146604797Y-122413456D01*
X146604793Y-122413449D01*
X146518547Y-122298240D01*
X146518544Y-122298237D01*
X146403335Y-122211991D01*
X146403328Y-122211987D01*
X146268482Y-122161693D01*
X146268483Y-122161693D01*
X146208883Y-122155286D01*
X146208881Y-122155285D01*
X146208873Y-122155285D01*
X146208865Y-122155285D01*
X144561098Y-122155285D01*
X144494059Y-122135600D01*
X144473417Y-122118966D01*
X142114819Y-119760368D01*
X142081334Y-119699045D01*
X142078500Y-119672687D01*
X142078500Y-118570054D01*
X149767498Y-118570054D01*
X149808423Y-118722785D01*
X149837358Y-118772900D01*
X149837359Y-118772904D01*
X149837360Y-118772904D01*
X149869847Y-118829175D01*
X149887479Y-118859714D01*
X149887481Y-118859717D01*
X150006349Y-118978585D01*
X150006355Y-118978590D01*
X150899139Y-119871374D01*
X150899149Y-119871385D01*
X150903479Y-119875715D01*
X150903480Y-119875716D01*
X151015284Y-119987520D01*
X151102095Y-120037639D01*
X151102097Y-120037641D01*
X151126689Y-120051839D01*
X151152215Y-120066577D01*
X151304943Y-120107501D01*
X151304946Y-120107501D01*
X151470653Y-120107501D01*
X151470669Y-120107500D01*
X153015909Y-120107500D01*
X153082948Y-120127185D01*
X153128292Y-120179097D01*
X153130965Y-120184830D01*
X153266505Y-120378401D01*
X153433599Y-120545495D01*
X153512868Y-120601000D01*
X153627165Y-120681032D01*
X153627167Y-120681033D01*
X153627170Y-120681035D01*
X153841337Y-120780903D01*
X154069592Y-120842063D01*
X154257918Y-120858539D01*
X154304999Y-120862659D01*
X154305000Y-120862659D01*
X154305001Y-120862659D01*
X154344234Y-120859226D01*
X154540408Y-120842063D01*
X154768663Y-120780903D01*
X154982830Y-120681035D01*
X155176401Y-120545495D01*
X155343495Y-120378401D01*
X155479035Y-120184830D01*
X155578903Y-119970663D01*
X155640063Y-119742408D01*
X155660659Y-119507000D01*
X155640063Y-119271592D01*
X155578903Y-119043337D01*
X155479035Y-118829171D01*
X155479034Y-118829169D01*
X155343494Y-118635597D01*
X155176402Y-118468506D01*
X155176396Y-118468501D01*
X154990842Y-118338575D01*
X154947217Y-118283998D01*
X154940023Y-118214500D01*
X154971546Y-118152145D01*
X154990842Y-118135425D01*
X155050897Y-118093374D01*
X155176401Y-118005495D01*
X155343495Y-117838401D01*
X155479035Y-117644830D01*
X155578903Y-117430663D01*
X155640063Y-117202408D01*
X155660659Y-116967000D01*
X155640063Y-116731592D01*
X155582162Y-116515499D01*
X155578905Y-116503344D01*
X155578904Y-116503343D01*
X155578903Y-116503337D01*
X155479035Y-116289171D01*
X155439339Y-116232478D01*
X155343494Y-116095597D01*
X155176402Y-115928506D01*
X155176395Y-115928501D01*
X155176099Y-115928294D01*
X155088579Y-115867011D01*
X154982834Y-115792967D01*
X154982830Y-115792965D01*
X154943841Y-115774784D01*
X154768663Y-115693097D01*
X154768659Y-115693096D01*
X154768655Y-115693094D01*
X154540413Y-115631938D01*
X154540403Y-115631936D01*
X154305001Y-115611341D01*
X154304999Y-115611341D01*
X154069596Y-115631936D01*
X154069586Y-115631938D01*
X153841344Y-115693094D01*
X153841335Y-115693098D01*
X153627171Y-115792964D01*
X153627169Y-115792965D01*
X153433597Y-115928505D01*
X153266505Y-116095597D01*
X153130965Y-116289169D01*
X153130964Y-116289171D01*
X153031098Y-116503335D01*
X153031094Y-116503344D01*
X152969938Y-116731586D01*
X152969936Y-116731596D01*
X152949341Y-116966999D01*
X152949341Y-116967000D01*
X152969936Y-117202403D01*
X152969938Y-117202413D01*
X153031094Y-117430655D01*
X153031096Y-117430659D01*
X153031097Y-117430663D01*
X153100284Y-117579035D01*
X153130965Y-117644830D01*
X153130967Y-117644834D01*
X153239281Y-117799521D01*
X153250787Y-117815954D01*
X153266501Y-117838395D01*
X153266506Y-117838402D01*
X153433597Y-118005493D01*
X153433603Y-118005498D01*
X153619158Y-118135425D01*
X153662783Y-118190002D01*
X153669977Y-118259500D01*
X153638454Y-118321855D01*
X153619158Y-118338575D01*
X153433597Y-118468505D01*
X153266506Y-118635596D01*
X153130965Y-118829170D01*
X153130962Y-118829175D01*
X153128289Y-118834909D01*
X153082115Y-118887346D01*
X153015909Y-118906500D01*
X151684097Y-118906500D01*
X151617058Y-118886815D01*
X151596416Y-118870181D01*
X151004819Y-118278584D01*
X150971334Y-118217261D01*
X150968500Y-118190903D01*
X150968500Y-117013096D01*
X150988185Y-116946057D01*
X151004815Y-116925419D01*
X151275535Y-116654698D01*
X151336856Y-116621215D01*
X151349311Y-116619163D01*
X151436255Y-116609368D01*
X151606522Y-116549789D01*
X151759262Y-116453816D01*
X151886816Y-116326262D01*
X151982789Y-116173522D01*
X152042368Y-116003255D01*
X152043929Y-115989401D01*
X152062565Y-115824003D01*
X152062565Y-115823996D01*
X152042369Y-115644750D01*
X152042368Y-115644745D01*
X152029330Y-115607485D01*
X151982789Y-115474478D01*
X151955291Y-115430716D01*
X151943582Y-115412080D01*
X151886816Y-115321738D01*
X151759262Y-115194184D01*
X151708158Y-115162073D01*
X151606523Y-115098211D01*
X151436254Y-115038631D01*
X151436249Y-115038630D01*
X151257004Y-115018435D01*
X151256996Y-115018435D01*
X151077750Y-115038630D01*
X151077745Y-115038631D01*
X150907476Y-115098211D01*
X150754737Y-115194184D01*
X150627184Y-115321737D01*
X150531210Y-115474478D01*
X150471630Y-115644750D01*
X150461837Y-115731668D01*
X150434770Y-115796082D01*
X150426298Y-115805465D01*
X149999286Y-116232478D01*
X149887481Y-116344282D01*
X149887477Y-116344287D01*
X149873778Y-116368017D01*
X149873777Y-116368019D01*
X149808423Y-116481215D01*
X149767499Y-116633943D01*
X149767499Y-116633945D01*
X149767499Y-116802046D01*
X149767500Y-116802059D01*
X149767500Y-118404330D01*
X149767499Y-118404348D01*
X149767499Y-118570054D01*
X149767498Y-118570054D01*
X142078500Y-118570054D01*
X142078500Y-112103059D01*
X142078501Y-112103046D01*
X142078501Y-111934945D01*
X142078501Y-111934943D01*
X142037577Y-111782215D01*
X142008639Y-111732095D01*
X141958520Y-111645284D01*
X141846716Y-111533480D01*
X141846715Y-111533479D01*
X141842385Y-111529149D01*
X141842374Y-111529139D01*
X139914231Y-109600996D01*
X140672435Y-109600996D01*
X140672435Y-109601003D01*
X140692630Y-109780249D01*
X140692631Y-109780254D01*
X140752211Y-109950523D01*
X140834523Y-110081521D01*
X140848184Y-110103262D01*
X140975738Y-110230816D01*
X141128478Y-110326789D01*
X141298745Y-110386368D01*
X141385669Y-110396161D01*
X141450080Y-110423226D01*
X141459465Y-110431700D01*
X142136139Y-111108374D01*
X142136149Y-111108385D01*
X142140479Y-111112715D01*
X142140480Y-111112716D01*
X142252284Y-111224520D01*
X142326728Y-111267500D01*
X142389215Y-111303577D01*
X142541943Y-111344500D01*
X143990345Y-111344500D01*
X144057384Y-111364185D01*
X144091917Y-111397373D01*
X144199402Y-111550877D01*
X144354123Y-111705598D01*
X144533361Y-111831102D01*
X144731670Y-111923575D01*
X144943023Y-111980207D01*
X145125926Y-111996208D01*
X145160998Y-111999277D01*
X145161000Y-111999277D01*
X145161002Y-111999277D01*
X145189254Y-111996805D01*
X145378977Y-111980207D01*
X145590330Y-111923575D01*
X145788639Y-111831102D01*
X145967877Y-111705598D01*
X146122598Y-111550877D01*
X146248102Y-111371639D01*
X146340575Y-111173330D01*
X146397207Y-110961977D01*
X146413805Y-110772254D01*
X146416277Y-110744002D01*
X146416277Y-110743997D01*
X146409278Y-110663998D01*
X146397207Y-110526023D01*
X146340575Y-110314670D01*
X146248102Y-110116362D01*
X146248100Y-110116359D01*
X146248099Y-110116357D01*
X146122599Y-109937124D01*
X146092048Y-109906573D01*
X145967877Y-109782402D01*
X145788639Y-109656898D01*
X145788640Y-109656898D01*
X145788638Y-109656897D01*
X145668757Y-109600996D01*
X145590330Y-109564425D01*
X145590326Y-109564424D01*
X145590322Y-109564422D01*
X145378977Y-109507793D01*
X145161002Y-109488723D01*
X145160998Y-109488723D01*
X145015682Y-109501436D01*
X144943023Y-109507793D01*
X144943020Y-109507793D01*
X144731677Y-109564422D01*
X144731668Y-109564426D01*
X144533361Y-109656898D01*
X144533357Y-109656900D01*
X144354121Y-109782402D01*
X144199402Y-109937121D01*
X144091920Y-110090623D01*
X144037343Y-110134248D01*
X143990345Y-110143500D01*
X142921097Y-110143500D01*
X142854058Y-110123815D01*
X142833416Y-110107181D01*
X142308700Y-109582465D01*
X142275215Y-109521142D01*
X142273163Y-109508686D01*
X142263368Y-109421745D01*
X142203789Y-109251478D01*
X142107816Y-109098738D01*
X141980262Y-108971184D01*
X141827523Y-108875211D01*
X141657254Y-108815631D01*
X141657249Y-108815630D01*
X141478004Y-108795435D01*
X141477996Y-108795435D01*
X141298750Y-108815630D01*
X141298745Y-108815631D01*
X141128476Y-108875211D01*
X140975737Y-108971184D01*
X140848184Y-109098737D01*
X140752211Y-109251476D01*
X140692631Y-109421745D01*
X140692630Y-109421750D01*
X140672435Y-109600996D01*
X139914231Y-109600996D01*
X139186991Y-108873756D01*
X139153506Y-108812433D01*
X139158490Y-108742741D01*
X139186987Y-108698398D01*
X139188290Y-108697095D01*
X139197531Y-108687853D01*
X139258850Y-108654367D01*
X139271311Y-108652314D01*
X139358255Y-108642519D01*
X139528522Y-108582940D01*
X139681262Y-108486967D01*
X139808816Y-108359413D01*
X139904789Y-108206673D01*
X139964368Y-108036406D01*
X139969529Y-107990599D01*
X139984565Y-107857154D01*
X139984565Y-107857147D01*
X139964369Y-107677901D01*
X139964366Y-107677888D01*
X139919219Y-107548866D01*
X139915657Y-107479087D01*
X139950385Y-107418460D01*
X140012379Y-107386232D01*
X140022357Y-107384693D01*
X140049520Y-107381633D01*
X140219787Y-107322054D01*
X140372527Y-107226081D01*
X140500081Y-107098527D01*
X140596054Y-106945787D01*
X140655633Y-106775520D01*
X140660508Y-106732254D01*
X140675830Y-106596268D01*
X140675830Y-106596261D01*
X140655634Y-106417015D01*
X140655633Y-106417010D01*
X140640319Y-106373245D01*
X140596054Y-106246743D01*
X140587238Y-106232713D01*
X140522181Y-106129175D01*
X140500081Y-106094003D01*
X140372527Y-105966449D01*
X140323430Y-105935599D01*
X140219786Y-105870475D01*
X140049514Y-105810895D01*
X140016752Y-105807204D01*
X139952338Y-105780137D01*
X139912783Y-105722542D01*
X139910646Y-105652705D01*
X139915625Y-105639143D01*
X139915489Y-105639096D01*
X139943292Y-105559639D01*
X139977368Y-105462255D01*
X139987161Y-105375329D01*
X140014226Y-105310918D01*
X140022690Y-105301544D01*
X140131417Y-105192818D01*
X140192740Y-105159334D01*
X140219097Y-105156500D01*
X140561678Y-105156500D01*
X140628717Y-105176185D01*
X140674472Y-105228989D01*
X140684898Y-105266617D01*
X140692630Y-105335249D01*
X140752210Y-105505521D01*
X140786215Y-105559639D01*
X140848184Y-105658262D01*
X140975738Y-105785816D01*
X141128478Y-105881789D01*
X141298745Y-105941368D01*
X141385669Y-105951161D01*
X141450080Y-105978226D01*
X141459465Y-105986700D01*
X141701139Y-106228374D01*
X141701149Y-106228385D01*
X141705479Y-106232715D01*
X141705480Y-106232716D01*
X141817284Y-106344520D01*
X141900238Y-106392413D01*
X141954215Y-106423577D01*
X142106942Y-106464500D01*
X142106943Y-106464500D01*
X143990345Y-106464500D01*
X144057384Y-106484185D01*
X144091917Y-106517373D01*
X144199402Y-106670877D01*
X144354123Y-106825598D01*
X144533361Y-106951102D01*
X144731670Y-107043575D01*
X144943023Y-107100207D01*
X145125926Y-107116208D01*
X145160998Y-107119277D01*
X145161000Y-107119277D01*
X145161002Y-107119277D01*
X145189254Y-107116805D01*
X145378977Y-107100207D01*
X145590330Y-107043575D01*
X145788639Y-106951102D01*
X145967877Y-106825598D01*
X146122598Y-106670877D01*
X146248102Y-106491639D01*
X146340575Y-106293330D01*
X146397207Y-106081977D01*
X146414721Y-105881789D01*
X146416277Y-105864002D01*
X146416277Y-105863997D01*
X146408940Y-105780137D01*
X146397207Y-105646023D01*
X146357181Y-105496644D01*
X146358844Y-105426797D01*
X146398006Y-105368934D01*
X146462235Y-105341430D01*
X146531137Y-105353016D01*
X146564637Y-105376872D01*
X146581139Y-105393374D01*
X146581149Y-105393385D01*
X146585479Y-105397715D01*
X146585480Y-105397716D01*
X146697284Y-105509520D01*
X146783854Y-105559500D01*
X146784095Y-105559639D01*
X146784097Y-105559641D01*
X146826284Y-105583998D01*
X146834215Y-105588577D01*
X146986942Y-105629500D01*
X146986943Y-105629500D01*
X148124719Y-105629500D01*
X148191758Y-105649185D01*
X148237513Y-105701989D01*
X148247457Y-105771147D01*
X148218432Y-105834703D01*
X148190691Y-105858494D01*
X148087737Y-105923184D01*
X147960184Y-106050737D01*
X147864211Y-106203476D01*
X147804631Y-106373745D01*
X147804630Y-106373750D01*
X147784435Y-106552996D01*
X147784435Y-106553003D01*
X147804630Y-106732249D01*
X147804631Y-106732254D01*
X147864211Y-106902523D01*
X147913636Y-106981182D01*
X147960184Y-107055262D01*
X148087738Y-107182816D01*
X148240478Y-107278789D01*
X148410745Y-107338368D01*
X148497669Y-107348161D01*
X148562080Y-107375226D01*
X148571464Y-107383699D01*
X151015284Y-109827520D01*
X151015286Y-109827521D01*
X151015290Y-109827524D01*
X151152209Y-109906573D01*
X151152216Y-109906577D01*
X151304943Y-109947501D01*
X151304945Y-109947501D01*
X151470654Y-109947501D01*
X151470670Y-109947500D01*
X153015909Y-109947500D01*
X153082948Y-109967185D01*
X153128292Y-110019097D01*
X153130965Y-110024830D01*
X153242714Y-110184424D01*
X153266501Y-110218395D01*
X153266506Y-110218402D01*
X153433597Y-110385493D01*
X153433603Y-110385498D01*
X153619158Y-110515425D01*
X153662783Y-110570002D01*
X153669977Y-110639500D01*
X153638454Y-110701855D01*
X153619158Y-110718575D01*
X153433597Y-110848505D01*
X153266505Y-111015597D01*
X153130965Y-111209169D01*
X153130964Y-111209171D01*
X153031098Y-111423335D01*
X153031094Y-111423344D01*
X152969938Y-111651586D01*
X152969936Y-111651596D01*
X152949341Y-111886999D01*
X152949341Y-111887000D01*
X152969936Y-112122403D01*
X152969938Y-112122413D01*
X153031094Y-112350655D01*
X153031096Y-112350659D01*
X153031097Y-112350663D01*
X153066211Y-112425964D01*
X153130965Y-112564830D01*
X153130967Y-112564834D01*
X153211978Y-112680529D01*
X153266505Y-112758401D01*
X153433599Y-112925495D01*
X153524865Y-112989400D01*
X153627165Y-113061032D01*
X153627167Y-113061033D01*
X153627170Y-113061035D01*
X153841337Y-113160903D01*
X153841343Y-113160904D01*
X153841344Y-113160905D01*
X153885279Y-113172677D01*
X154069592Y-113222063D01*
X154250640Y-113237903D01*
X154304999Y-113242659D01*
X154305000Y-113242659D01*
X154305001Y-113242659D01*
X154359360Y-113237903D01*
X154540408Y-113222063D01*
X154768663Y-113160903D01*
X154982830Y-113061035D01*
X155176401Y-112925495D01*
X155343495Y-112758401D01*
X155479035Y-112564830D01*
X155578903Y-112350663D01*
X155640063Y-112122408D01*
X155660659Y-111887000D01*
X155640063Y-111651592D01*
X155580828Y-111430520D01*
X155578905Y-111423344D01*
X155578904Y-111423343D01*
X155578903Y-111423337D01*
X155479035Y-111209171D01*
X155473289Y-111200964D01*
X155343494Y-111015597D01*
X155176402Y-110848506D01*
X155176396Y-110848501D01*
X154990842Y-110718575D01*
X154947217Y-110663998D01*
X154940023Y-110594500D01*
X154971546Y-110532145D01*
X154990842Y-110515425D01*
X155028675Y-110488934D01*
X155176401Y-110385495D01*
X155343495Y-110218401D01*
X155479035Y-110024830D01*
X155578903Y-109810663D01*
X155640063Y-109582408D01*
X155660659Y-109347000D01*
X155640063Y-109111592D01*
X155578903Y-108883337D01*
X155479035Y-108669171D01*
X155479034Y-108669169D01*
X155343494Y-108475597D01*
X155176402Y-108308506D01*
X155176396Y-108308501D01*
X154990842Y-108178575D01*
X154947217Y-108123998D01*
X154940023Y-108054500D01*
X154971546Y-107992145D01*
X154990842Y-107975425D01*
X155059487Y-107927359D01*
X155176401Y-107845495D01*
X155343495Y-107678401D01*
X155479035Y-107484830D01*
X155578903Y-107270663D01*
X155640063Y-107042408D01*
X155660659Y-106807000D01*
X155640063Y-106571592D01*
X155578903Y-106343337D01*
X155479035Y-106129171D01*
X155479034Y-106129169D01*
X155343494Y-105935597D01*
X155176402Y-105768506D01*
X155176396Y-105768501D01*
X154990842Y-105638575D01*
X154947217Y-105583998D01*
X154940023Y-105514500D01*
X154971546Y-105452145D01*
X154990842Y-105435425D01*
X155076662Y-105375333D01*
X155176401Y-105305495D01*
X155343495Y-105138401D01*
X155479035Y-104944830D01*
X155578903Y-104730663D01*
X155640063Y-104502408D01*
X155660659Y-104267000D01*
X155640063Y-104031592D01*
X155578903Y-103803337D01*
X155479035Y-103589171D01*
X155479034Y-103589169D01*
X155343496Y-103395600D01*
X155300611Y-103352715D01*
X155221567Y-103273671D01*
X155188084Y-103212351D01*
X155193068Y-103142659D01*
X155234939Y-103086725D01*
X155265915Y-103069810D01*
X155397331Y-103020796D01*
X155512546Y-102934546D01*
X155598796Y-102819331D01*
X155649091Y-102684483D01*
X155655500Y-102624873D01*
X155655499Y-100829128D01*
X155649091Y-100769517D01*
X155640133Y-100745500D01*
X155598797Y-100634671D01*
X155598793Y-100634664D01*
X155512547Y-100519455D01*
X155512544Y-100519452D01*
X155397335Y-100433206D01*
X155397328Y-100433202D01*
X155262482Y-100382908D01*
X155262483Y-100382908D01*
X155202883Y-100376501D01*
X155202881Y-100376500D01*
X155202873Y-100376500D01*
X155202864Y-100376500D01*
X153407129Y-100376500D01*
X153407123Y-100376501D01*
X153347516Y-100382908D01*
X153212671Y-100433202D01*
X153212664Y-100433206D01*
X153097455Y-100519452D01*
X153097452Y-100519455D01*
X153011206Y-100634664D01*
X153011202Y-100634671D01*
X152960908Y-100769517D01*
X152957883Y-100797658D01*
X152954501Y-100829123D01*
X152954500Y-100829135D01*
X152954500Y-101002500D01*
X152934815Y-101069539D01*
X152882011Y-101115294D01*
X152830500Y-101126500D01*
X151684097Y-101126500D01*
X151617058Y-101106815D01*
X151596416Y-101090181D01*
X151490590Y-100984355D01*
X151490588Y-100984352D01*
X151371717Y-100865481D01*
X151371709Y-100865475D01*
X151254245Y-100797658D01*
X151254245Y-100797657D01*
X151254240Y-100797656D01*
X151247451Y-100793736D01*
X151234786Y-100786423D01*
X151196603Y-100776192D01*
X151082057Y-100745499D01*
X150923943Y-100745499D01*
X150916347Y-100745499D01*
X150916331Y-100745500D01*
X147940500Y-100745500D01*
X147873461Y-100725815D01*
X147827706Y-100673011D01*
X147816500Y-100621500D01*
X147816500Y-98478079D01*
X147787659Y-98333092D01*
X147787658Y-98333091D01*
X147787658Y-98333087D01*
X147731084Y-98196505D01*
X147694275Y-98141416D01*
X147694274Y-98141414D01*
X147694273Y-98141412D01*
X147648953Y-98073585D01*
X147648947Y-98073578D01*
X146855920Y-97280551D01*
X146850330Y-97276816D01*
X146780192Y-97229952D01*
X146780191Y-97229951D01*
X146733001Y-97198419D01*
X146732988Y-97198412D01*
X146596417Y-97141843D01*
X146596407Y-97141840D01*
X146451420Y-97113000D01*
X146451418Y-97113000D01*
X146150499Y-97113000D01*
X146083460Y-97093315D01*
X146037705Y-97040511D01*
X146026499Y-96989000D01*
X146026499Y-96405471D01*
X146026499Y-96405464D01*
X146015886Y-96286082D01*
X145959909Y-96090451D01*
X145865698Y-95910093D01*
X145803901Y-95834305D01*
X145737109Y-95752390D01*
X145615005Y-95652828D01*
X145579407Y-95623802D01*
X145399049Y-95529591D01*
X145399048Y-95529590D01*
X145399045Y-95529589D01*
X145281829Y-95496050D01*
X145203418Y-95473614D01*
X145203415Y-95473613D01*
X145203413Y-95473613D01*
X145137102Y-95467717D01*
X145084037Y-95463000D01*
X145084032Y-95463000D01*
X143967971Y-95463000D01*
X143967965Y-95463000D01*
X143967964Y-95463001D01*
X143956316Y-95464036D01*
X143848584Y-95473613D01*
X143652954Y-95529589D01*
X143564117Y-95575994D01*
X143472593Y-95623802D01*
X143472591Y-95623803D01*
X143472590Y-95623804D01*
X143314890Y-95752390D01*
X143199675Y-95893692D01*
X143186302Y-95910093D01*
X143169037Y-95943145D01*
X143092089Y-96090454D01*
X143036114Y-96286083D01*
X143036113Y-96286086D01*
X143025500Y-96405466D01*
X143025500Y-96989000D01*
X143005815Y-97056039D01*
X142953011Y-97101794D01*
X142901500Y-97113000D01*
X139718942Y-97113000D01*
X139651903Y-97093315D01*
X139607854Y-97044094D01*
X139593030Y-97014204D01*
X139473722Y-96865778D01*
X139473721Y-96865777D01*
X139325295Y-96746469D01*
X139325292Y-96746467D01*
X139154697Y-96661860D01*
X138969892Y-96615900D01*
X138948506Y-96614450D01*
X138927123Y-96613000D01*
X138927120Y-96613000D01*
X137524877Y-96613000D01*
X137524874Y-96613001D01*
X137482113Y-96615899D01*
X137482112Y-96615899D01*
X137297303Y-96661860D01*
X137126707Y-96746467D01*
X137126704Y-96746469D01*
X136978278Y-96865777D01*
X136978277Y-96865778D01*
X136858969Y-97014204D01*
X136844146Y-97044094D01*
X136796725Y-97095407D01*
X136733058Y-97113000D01*
X136494613Y-97113000D01*
X136427574Y-97093315D01*
X136381819Y-97040511D01*
X136372996Y-97013193D01*
X136369973Y-96997995D01*
X136365588Y-96975951D01*
X136357659Y-96936088D01*
X136303408Y-96805117D01*
X136301764Y-96800523D01*
X136248574Y-96720917D01*
X136248572Y-96720915D01*
X136218954Y-96676586D01*
X136218952Y-96676584D01*
X135352421Y-95810052D01*
X135352414Y-95810046D01*
X135278729Y-95760812D01*
X135278729Y-95760813D01*
X135229491Y-95727913D01*
X135092917Y-95671343D01*
X135092907Y-95671340D01*
X135036731Y-95660166D01*
X134974820Y-95627781D01*
X134973242Y-95626230D01*
X134917044Y-95570032D01*
X134917040Y-95570029D01*
X134772705Y-95481001D01*
X134772699Y-95480998D01*
X134772697Y-95480997D01*
X134772694Y-95480996D01*
X134611709Y-95427651D01*
X134512346Y-95417500D01*
X133965662Y-95417500D01*
X133965644Y-95417501D01*
X133866292Y-95427650D01*
X133866289Y-95427651D01*
X133705305Y-95480996D01*
X133705294Y-95481001D01*
X133560959Y-95570029D01*
X133560955Y-95570032D01*
X133441032Y-95689955D01*
X133441029Y-95689959D01*
X133352001Y-95834294D01*
X133351996Y-95834305D01*
X133298651Y-95995290D01*
X133288500Y-96094647D01*
X133288500Y-96691337D01*
X133288501Y-96691355D01*
X133298650Y-96790707D01*
X133298651Y-96790710D01*
X133351996Y-96951694D01*
X133352001Y-96951705D01*
X133441029Y-97096040D01*
X133441032Y-97096044D01*
X133560955Y-97215967D01*
X133560959Y-97215970D01*
X133705294Y-97304998D01*
X133705297Y-97304999D01*
X133705303Y-97305003D01*
X133866292Y-97358349D01*
X133965655Y-97368500D01*
X134512344Y-97368499D01*
X134512352Y-97368498D01*
X134512355Y-97368498D01*
X134566760Y-97362940D01*
X134611708Y-97358349D01*
X134663995Y-97341023D01*
X134733823Y-97338621D01*
X134790680Y-97371048D01*
X134849181Y-97429549D01*
X134882666Y-97490872D01*
X134885500Y-97517230D01*
X134885500Y-97736918D01*
X134885500Y-97736920D01*
X134885499Y-97736920D01*
X134914340Y-97881907D01*
X134914343Y-97881917D01*
X134970914Y-98018492D01*
X135003812Y-98067727D01*
X135003813Y-98067730D01*
X135053046Y-98141414D01*
X135053052Y-98141421D01*
X135358084Y-98446452D01*
X135358086Y-98446454D01*
X135387558Y-98466145D01*
X135431770Y-98495686D01*
X135481005Y-98528584D01*
X135481006Y-98528584D01*
X135481007Y-98528585D01*
X135481009Y-98528586D01*
X135617582Y-98585156D01*
X135617587Y-98585158D01*
X135617591Y-98585158D01*
X135617592Y-98585159D01*
X135762579Y-98614000D01*
X135762582Y-98614000D01*
X135762583Y-98614000D01*
X135910418Y-98614000D01*
X136733058Y-98614000D01*
X136800097Y-98633685D01*
X136844146Y-98682906D01*
X136858969Y-98712795D01*
X136978277Y-98861221D01*
X136978278Y-98861222D01*
X137047486Y-98916853D01*
X137087405Y-98974196D01*
X137089985Y-99044018D01*
X137054406Y-99104151D01*
X137047486Y-99110147D01*
X136978278Y-99165777D01*
X136978277Y-99165778D01*
X136887117Y-99279187D01*
X136829774Y-99319106D01*
X136790470Y-99325500D01*
X135040874Y-99325500D01*
X134973835Y-99305815D01*
X134953193Y-99289181D01*
X134917044Y-99253032D01*
X134917040Y-99253029D01*
X134772705Y-99164001D01*
X134772699Y-99163998D01*
X134772697Y-99163997D01*
X134772694Y-99163996D01*
X134611709Y-99110651D01*
X134512346Y-99100500D01*
X133965662Y-99100500D01*
X133965644Y-99100501D01*
X133866292Y-99110650D01*
X133866289Y-99110651D01*
X133705305Y-99163996D01*
X133705294Y-99164001D01*
X133560959Y-99253029D01*
X133560955Y-99253032D01*
X133441032Y-99372955D01*
X133441029Y-99372959D01*
X133352001Y-99517294D01*
X133351996Y-99517305D01*
X133298651Y-99678290D01*
X133288500Y-99777647D01*
X133288500Y-100374337D01*
X133288501Y-100374355D01*
X133298650Y-100473707D01*
X133298651Y-100473710D01*
X133351996Y-100634694D01*
X133352001Y-100634705D01*
X133441029Y-100779040D01*
X133441032Y-100779044D01*
X133484195Y-100822208D01*
X133517679Y-100883531D01*
X133512694Y-100953223D01*
X133484194Y-100997569D01*
X133264582Y-101217182D01*
X133203262Y-101250666D01*
X133176903Y-101253500D01*
X132166669Y-101253500D01*
X132166653Y-101253499D01*
X132159057Y-101253499D01*
X132000943Y-101253499D01*
X131848215Y-101294423D01*
X131848213Y-101294424D01*
X131819652Y-101310912D01*
X131819653Y-101310913D01*
X131711287Y-101373477D01*
X131711282Y-101373481D01*
X129567481Y-103517282D01*
X129567479Y-103517285D01*
X129544114Y-103557755D01*
X129519449Y-103600478D01*
X129517361Y-103604094D01*
X129517359Y-103604096D01*
X129488425Y-103654209D01*
X129488424Y-103654210D01*
X129488423Y-103654215D01*
X129447499Y-103806943D01*
X129447499Y-103806945D01*
X129447499Y-103975046D01*
X129447500Y-103975059D01*
X129447500Y-104244184D01*
X129427815Y-104311223D01*
X129375011Y-104356978D01*
X129309617Y-104367404D01*
X129159004Y-104350435D01*
X129158996Y-104350435D01*
X128979750Y-104370630D01*
X128979745Y-104370631D01*
X128809476Y-104430211D01*
X128656737Y-104526184D01*
X128529184Y-104653737D01*
X128433211Y-104806476D01*
X128373631Y-104976745D01*
X128373630Y-104976750D01*
X128353435Y-105155996D01*
X128353435Y-105156003D01*
X128373630Y-105335249D01*
X128373631Y-105335254D01*
X128433211Y-105505523D01*
X128467215Y-105559639D01*
X128525692Y-105652705D01*
X128529185Y-105658263D01*
X128531445Y-105661097D01*
X128532334Y-105663275D01*
X128532889Y-105664158D01*
X128532734Y-105664255D01*
X128557855Y-105725783D01*
X128558500Y-105738412D01*
X128558500Y-105917859D01*
X128558499Y-105917877D01*
X128558499Y-106083583D01*
X128558498Y-106083583D01*
X128599424Y-106236318D01*
X128599425Y-106236319D01*
X128622314Y-106275963D01*
X128622315Y-106275964D01*
X128678477Y-106373241D01*
X128678481Y-106373246D01*
X128797349Y-106492114D01*
X128797355Y-106492119D01*
X129665181Y-107359945D01*
X129698666Y-107421268D01*
X129701500Y-107447626D01*
X129701500Y-109133330D01*
X129701499Y-109133348D01*
X129701499Y-109299054D01*
X129701498Y-109299054D01*
X129701499Y-109299057D01*
X129742423Y-109451785D01*
X129752202Y-109468723D01*
X129771358Y-109501900D01*
X129771359Y-109501904D01*
X129771360Y-109501904D01*
X129807456Y-109564426D01*
X129821479Y-109588714D01*
X129821481Y-109588717D01*
X129940349Y-109707585D01*
X129940355Y-109707590D01*
X131547139Y-111314374D01*
X131547149Y-111314385D01*
X131551479Y-111318715D01*
X131551480Y-111318716D01*
X131663284Y-111430520D01*
X131663286Y-111430521D01*
X131663290Y-111430524D01*
X131745093Y-111477752D01*
X131800216Y-111509577D01*
X131912019Y-111539534D01*
X131918604Y-111541298D01*
X131978260Y-111577667D01*
X132008785Y-111640516D01*
X132010500Y-111661070D01*
X132010500Y-112140500D01*
X131990815Y-112207539D01*
X131938011Y-112253294D01*
X131886500Y-112264500D01*
X131311596Y-112264500D01*
X131201536Y-112278988D01*
X131201527Y-112278991D01*
X131064574Y-112335719D01*
X131064571Y-112335720D01*
X131064571Y-112335721D01*
X131045097Y-112350664D01*
X130946964Y-112425964D01*
X130856719Y-112543574D01*
X130799991Y-112680527D01*
X130799990Y-112680529D01*
X130785500Y-112790598D01*
X130785500Y-112989403D01*
X130799989Y-113099468D01*
X130802094Y-113107322D01*
X130798814Y-113108200D01*
X130804581Y-113162073D01*
X130801517Y-113172522D01*
X130802095Y-113172677D01*
X130799990Y-113180529D01*
X130785500Y-113290598D01*
X130785500Y-113380903D01*
X130765815Y-113447942D01*
X130713011Y-113493697D01*
X130643853Y-113503641D01*
X130580297Y-113474616D01*
X130573819Y-113468584D01*
X130430819Y-113325584D01*
X130397334Y-113264261D01*
X130394500Y-113237903D01*
X130394500Y-110918944D01*
X130394499Y-110918940D01*
X130393459Y-110915057D01*
X130388219Y-110895500D01*
X130353577Y-110766215D01*
X130310973Y-110692423D01*
X130274520Y-110629284D01*
X130162716Y-110517480D01*
X130162715Y-110517479D01*
X130158385Y-110513149D01*
X130158374Y-110513139D01*
X130027590Y-110382355D01*
X130027588Y-110382352D01*
X129908717Y-110263481D01*
X129908712Y-110263477D01*
X129801363Y-110201500D01*
X129801361Y-110201499D01*
X129771787Y-110184424D01*
X129771786Y-110184423D01*
X129771785Y-110184423D01*
X129619057Y-110143499D01*
X129460943Y-110143499D01*
X129453347Y-110143499D01*
X129453331Y-110143500D01*
X129205097Y-110143500D01*
X129138058Y-110123815D01*
X129117416Y-110107181D01*
X127106590Y-108096355D01*
X127106588Y-108096352D01*
X126987717Y-107977481D01*
X126987716Y-107977480D01*
X126900904Y-107927360D01*
X126900904Y-107927359D01*
X126900900Y-107927358D01*
X126850785Y-107898423D01*
X126698057Y-107857499D01*
X126539943Y-107857499D01*
X126532347Y-107857499D01*
X126532331Y-107857500D01*
X125184057Y-107857500D01*
X125025942Y-107857500D01*
X124873215Y-107898423D01*
X124873214Y-107898423D01*
X124873212Y-107898424D01*
X124873209Y-107898425D01*
X124823096Y-107927359D01*
X124823095Y-107927360D01*
X124790562Y-107946143D01*
X124736285Y-107977479D01*
X124736282Y-107977481D01*
X124624478Y-108089286D01*
X124235108Y-108478655D01*
X124173785Y-108512140D01*
X124124642Y-108512862D01*
X123983613Y-108486500D01*
X123760387Y-108486500D01*
X123540961Y-108527518D01*
X123409328Y-108578512D01*
X123332810Y-108608156D01*
X123332804Y-108608158D01*
X123143025Y-108725664D01*
X123143015Y-108725671D01*
X122978051Y-108876055D01*
X122843526Y-109054195D01*
X122744026Y-109254018D01*
X122744023Y-109254024D01*
X122682937Y-109468723D01*
X122682936Y-109468726D01*
X122662340Y-109690999D01*
X110990500Y-109690999D01*
X110990500Y-94741994D01*
X113076716Y-94741994D01*
X113076716Y-94742005D01*
X113096374Y-95054480D01*
X113096375Y-95054487D01*
X113096376Y-95054491D01*
X113148586Y-95328187D01*
X113155048Y-95362059D01*
X113251803Y-95659840D01*
X113251805Y-95659845D01*
X113385117Y-95943145D01*
X113385120Y-95943151D01*
X113552887Y-96207511D01*
X113552890Y-96207515D01*
X113552891Y-96207516D01*
X113752474Y-96448770D01*
X113963568Y-96647000D01*
X113980719Y-96663106D01*
X113980729Y-96663114D01*
X114234020Y-96847141D01*
X114234025Y-96847143D01*
X114234032Y-96847149D01*
X114508411Y-96997991D01*
X114508416Y-96997993D01*
X114508418Y-96997994D01*
X114508419Y-96997995D01*
X114799529Y-97113253D01*
X114799532Y-97113254D01*
X115102801Y-97191120D01*
X115102805Y-97191121D01*
X115160519Y-97198412D01*
X115413433Y-97230363D01*
X115413442Y-97230363D01*
X115413445Y-97230364D01*
X115413447Y-97230364D01*
X115726553Y-97230364D01*
X115726555Y-97230364D01*
X115726558Y-97230363D01*
X115726566Y-97230363D01*
X115911925Y-97206946D01*
X116037195Y-97191121D01*
X116340467Y-97113254D01*
X116385544Y-97095407D01*
X116631580Y-96997995D01*
X116631581Y-96997994D01*
X116631579Y-96997994D01*
X116631589Y-96997991D01*
X116905968Y-96847149D01*
X117159279Y-96663108D01*
X117387526Y-96448770D01*
X117587109Y-96207516D01*
X117754881Y-95943149D01*
X117888197Y-95659839D01*
X117915440Y-95575994D01*
X120899357Y-95575994D01*
X120899357Y-95576005D01*
X120919890Y-95823812D01*
X120919892Y-95823824D01*
X120980936Y-96064881D01*
X121080826Y-96292606D01*
X121216833Y-96500782D01*
X121216835Y-96500784D01*
X121216836Y-96500785D01*
X121385256Y-96683738D01*
X121581491Y-96836474D01*
X121581493Y-96836475D01*
X121765561Y-96936088D01*
X121800190Y-96954828D01*
X122035386Y-97035571D01*
X122280665Y-97076500D01*
X122529335Y-97076500D01*
X122774614Y-97035571D01*
X123009810Y-96954828D01*
X123228509Y-96836474D01*
X123424744Y-96683738D01*
X123593164Y-96500785D01*
X123670327Y-96382677D01*
X123723474Y-96337322D01*
X123774136Y-96326500D01*
X127535864Y-96326500D01*
X127602903Y-96346185D01*
X127639672Y-96382677D01*
X127716836Y-96500785D01*
X127885256Y-96683738D01*
X128081491Y-96836474D01*
X128081493Y-96836475D01*
X128265561Y-96936088D01*
X128300190Y-96954828D01*
X128535386Y-97035571D01*
X128780665Y-97076500D01*
X129029335Y-97076500D01*
X129274614Y-97035571D01*
X129509810Y-96954828D01*
X129728509Y-96836474D01*
X129831373Y-96756410D01*
X129896364Y-96730768D01*
X129964904Y-96744334D01*
X129995215Y-96766583D01*
X130183692Y-96955060D01*
X130206356Y-96991129D01*
X130208188Y-96990247D01*
X130211207Y-96996516D01*
X130264344Y-97081082D01*
X130307184Y-97149262D01*
X130434738Y-97276816D01*
X130498635Y-97316965D01*
X130580650Y-97368499D01*
X130587478Y-97372789D01*
X130749689Y-97429549D01*
X130757745Y-97432368D01*
X130757750Y-97432369D01*
X130936996Y-97452565D01*
X130937000Y-97452565D01*
X130937004Y-97452565D01*
X131116249Y-97432369D01*
X131116252Y-97432368D01*
X131116255Y-97432368D01*
X131286522Y-97372789D01*
X131439262Y-97276816D01*
X131566816Y-97149262D01*
X131662789Y-96996522D01*
X131722368Y-96826255D01*
X131724748Y-96805136D01*
X131742565Y-96647003D01*
X131742565Y-96646996D01*
X131722369Y-96467750D01*
X131722368Y-96467745D01*
X131700575Y-96405464D01*
X131662789Y-96297478D01*
X131659728Y-96292607D01*
X131566815Y-96144737D01*
X131439262Y-96017184D01*
X131286516Y-95921207D01*
X131280247Y-95918188D01*
X131281129Y-95916356D01*
X131245060Y-95893692D01*
X130344421Y-94993052D01*
X130344418Y-94993049D01*
X130294441Y-94959656D01*
X130249776Y-94906364D01*
X130229173Y-94859393D01*
X130152473Y-94741994D01*
X152573716Y-94741994D01*
X152573716Y-94742005D01*
X152593374Y-95054480D01*
X152593375Y-95054487D01*
X152593376Y-95054491D01*
X152645586Y-95328187D01*
X152652048Y-95362059D01*
X152748803Y-95659840D01*
X152748805Y-95659845D01*
X152882117Y-95943145D01*
X152882120Y-95943151D01*
X153049887Y-96207511D01*
X153049890Y-96207515D01*
X153049891Y-96207516D01*
X153249474Y-96448770D01*
X153460568Y-96647000D01*
X153477719Y-96663106D01*
X153477729Y-96663114D01*
X153731020Y-96847141D01*
X153731025Y-96847143D01*
X153731032Y-96847149D01*
X154005411Y-96997991D01*
X154005416Y-96997993D01*
X154005418Y-96997994D01*
X154005419Y-96997995D01*
X154296529Y-97113253D01*
X154296532Y-97113254D01*
X154599801Y-97191120D01*
X154599805Y-97191121D01*
X154657519Y-97198412D01*
X154910433Y-97230363D01*
X154910442Y-97230363D01*
X154910445Y-97230364D01*
X154910447Y-97230364D01*
X155223553Y-97230364D01*
X155223555Y-97230364D01*
X155223558Y-97230363D01*
X155223566Y-97230363D01*
X155408925Y-97206946D01*
X155534195Y-97191121D01*
X155837467Y-97113254D01*
X155882544Y-97095407D01*
X156128580Y-96997995D01*
X156128581Y-96997994D01*
X156128579Y-96997994D01*
X156128589Y-96997991D01*
X156402968Y-96847149D01*
X156656279Y-96663108D01*
X156884526Y-96448770D01*
X157084109Y-96207516D01*
X157251881Y-95943149D01*
X157385197Y-95659839D01*
X157481953Y-95362055D01*
X157540624Y-95054491D01*
X157540625Y-95054480D01*
X157560284Y-94742005D01*
X157560284Y-94741994D01*
X157540625Y-94429519D01*
X157540624Y-94429512D01*
X157540624Y-94429509D01*
X157481953Y-94121945D01*
X157385197Y-93824161D01*
X157251881Y-93540851D01*
X157149746Y-93379912D01*
X157084112Y-93276488D01*
X157070237Y-93259716D01*
X156884526Y-93035230D01*
X156656279Y-92820892D01*
X156656276Y-92820890D01*
X156656270Y-92820885D01*
X156402979Y-92636858D01*
X156402972Y-92636853D01*
X156402968Y-92636851D01*
X156128589Y-92486009D01*
X156128586Y-92486007D01*
X156128581Y-92486005D01*
X156128580Y-92486004D01*
X155837470Y-92370746D01*
X155837467Y-92370745D01*
X155534198Y-92292879D01*
X155534185Y-92292877D01*
X155223566Y-92253636D01*
X155223555Y-92253636D01*
X154910445Y-92253636D01*
X154910433Y-92253636D01*
X154599814Y-92292877D01*
X154599801Y-92292879D01*
X154296532Y-92370745D01*
X154296529Y-92370746D01*
X154005419Y-92486004D01*
X154005418Y-92486005D01*
X153731032Y-92636851D01*
X153731020Y-92636858D01*
X153477729Y-92820885D01*
X153477719Y-92820893D01*
X153249476Y-93035228D01*
X153049887Y-93276488D01*
X152882120Y-93540848D01*
X152882117Y-93540854D01*
X152748805Y-93824154D01*
X152748803Y-93824159D01*
X152652048Y-94121940D01*
X152593375Y-94429512D01*
X152593374Y-94429519D01*
X152573716Y-94741994D01*
X130152473Y-94741994D01*
X130093166Y-94651217D01*
X130071557Y-94627744D01*
X129924744Y-94468262D01*
X129728509Y-94315526D01*
X129728507Y-94315525D01*
X129728506Y-94315524D01*
X129509811Y-94197172D01*
X129509802Y-94197169D01*
X129274616Y-94116429D01*
X129029335Y-94075500D01*
X128780665Y-94075500D01*
X128535383Y-94116429D01*
X128300197Y-94197169D01*
X128300188Y-94197172D01*
X128081493Y-94315524D01*
X127885257Y-94468261D01*
X127716836Y-94651215D01*
X127639673Y-94769322D01*
X127586526Y-94814678D01*
X127535864Y-94825500D01*
X123774136Y-94825500D01*
X123707097Y-94805815D01*
X123670327Y-94769322D01*
X123652480Y-94742005D01*
X123593164Y-94651215D01*
X123424744Y-94468262D01*
X123228509Y-94315526D01*
X123228507Y-94315525D01*
X123228506Y-94315524D01*
X123009811Y-94197172D01*
X123009802Y-94197169D01*
X122774616Y-94116429D01*
X122529335Y-94075500D01*
X122280665Y-94075500D01*
X122035383Y-94116429D01*
X121800197Y-94197169D01*
X121800188Y-94197172D01*
X121581493Y-94315524D01*
X121385257Y-94468261D01*
X121216833Y-94651217D01*
X121080826Y-94859393D01*
X120980936Y-95087118D01*
X120919892Y-95328175D01*
X120919890Y-95328187D01*
X120899357Y-95575994D01*
X117915440Y-95575994D01*
X117984953Y-95362055D01*
X118043624Y-95054491D01*
X118043625Y-95054480D01*
X118063284Y-94742005D01*
X118063284Y-94741994D01*
X118043625Y-94429519D01*
X118043624Y-94429512D01*
X118043624Y-94429509D01*
X117984953Y-94121945D01*
X117888197Y-93824161D01*
X117754881Y-93540851D01*
X117652746Y-93379912D01*
X117587112Y-93276488D01*
X117573237Y-93259716D01*
X117387526Y-93035230D01*
X117159279Y-92820892D01*
X117159276Y-92820890D01*
X117159270Y-92820885D01*
X116905979Y-92636858D01*
X116905972Y-92636853D01*
X116905968Y-92636851D01*
X116631589Y-92486009D01*
X116631586Y-92486007D01*
X116631581Y-92486005D01*
X116631580Y-92486004D01*
X116340470Y-92370746D01*
X116340467Y-92370745D01*
X116037198Y-92292879D01*
X116037185Y-92292877D01*
X115726566Y-92253636D01*
X115726555Y-92253636D01*
X115413445Y-92253636D01*
X115413433Y-92253636D01*
X115102814Y-92292877D01*
X115102801Y-92292879D01*
X114799532Y-92370745D01*
X114799529Y-92370746D01*
X114508419Y-92486004D01*
X114508418Y-92486005D01*
X114234032Y-92636851D01*
X114234020Y-92636858D01*
X113980729Y-92820885D01*
X113980719Y-92820893D01*
X113752476Y-93035228D01*
X113552887Y-93276488D01*
X113385120Y-93540848D01*
X113385117Y-93540854D01*
X113251805Y-93824154D01*
X113251803Y-93824159D01*
X113155048Y-94121940D01*
X113096375Y-94429512D01*
X113096374Y-94429519D01*
X113076716Y-94741994D01*
X110990500Y-94741994D01*
X110990500Y-92064500D01*
X111010185Y-91997461D01*
X111062989Y-91951706D01*
X111114500Y-91940500D01*
X157871500Y-91940500D01*
X157938539Y-91960185D01*
G37*
%TD.AperFunction*%
%TD*%
M02*
